<svg width="319" height="93" viewBox="0 0 319 93" fill="none" xmlns="http://www.w3.org/2000/svg">
<path d="M27.312 1.824H33.456V36H27.312V21.168H9.792V36H3.696V1.824H9.792V16.128H27.312V1.824ZM63.6199 11.76V36H57.7159V32.112C56.9799 33.456 55.9239 34.512 54.5479 35.28C53.1719 36.016 51.6039 36.384 49.8439 36.384C47.7319 36.384 45.8599 35.872 44.2279 34.848C42.5959 33.824 41.3319 32.368 40.4359 30.48C39.5399 28.592 39.0919 26.4 39.0919 23.904C39.0919 21.408 39.5399 19.2 40.4359 17.28C41.3639 15.328 42.6439 13.824 44.2759 12.768C45.9079 11.68 47.7639 11.136 49.8439 11.136C51.6039 11.136 53.1719 11.52 54.5479 12.288C55.9239 13.024 56.9799 14.064 57.7159 15.408V11.76H63.6199ZM51.4759 31.68C53.4599 31.68 54.9959 30.992 56.0839 29.616C57.1719 28.24 57.7159 26.304 57.7159 23.808C57.7159 21.248 57.1719 19.28 56.0839 17.904C54.9959 16.528 53.4439 15.84 51.4279 15.84C49.4439 15.84 47.8919 16.56 46.7719 18C45.6839 19.408 45.1399 21.376 45.1399 23.904C45.1399 26.4 45.6839 28.32 46.7719 29.664C47.8919 31.008 49.4599 31.68 51.4759 31.68ZM87.1466 11.808H93.0986L82.4906 36H77.2586L66.7946 11.808H73.0826L80.0426 29.184L87.1466 11.808ZM117.011 24.192H100.307C100.435 26.784 101.075 28.704 102.227 29.952C103.411 31.168 105.155 31.776 107.459 31.776C110.115 31.776 112.579 30.912 114.851 29.184L116.579 33.312C115.427 34.24 114.003 34.992 112.307 35.568C110.643 36.112 108.947 36.384 107.219 36.384C103.251 36.384 100.131 35.264 97.8593 33.024C95.5873 30.784 94.4513 27.712 94.4513 23.808C94.4513 21.344 94.9473 19.152 95.9393 17.232C96.9313 15.312 98.3233 13.824 100.115 12.768C101.907 11.68 103.939 11.136 106.211 11.136C109.539 11.136 112.163 12.224 114.083 14.4C116.035 16.544 117.011 19.504 117.011 23.28V24.192ZM106.355 15.456C104.755 15.456 103.443 15.936 102.419 16.896C101.427 17.824 100.787 19.184 100.499 20.976H111.779C111.587 19.152 111.027 17.776 110.099 16.848C109.203 15.92 107.955 15.456 106.355 15.456ZM146.736 5.424C144.144 5.424 142.848 6.848 142.848 9.696V11.76H148.272V16.272H142.848V36H136.848V16.272H132.24V11.76H136.848V9.408C136.848 6.528 137.568 4.32 139.008 2.784C140.48 1.216 142.576 0.431997 145.296 0.431997C146.8 0.431997 148.064 0.623998 149.088 1.008V5.76C148.192 5.536 147.408 5.424 146.736 5.424ZM165.945 11.184C166.873 11.184 167.673 11.312 168.345 11.568L168.297 17.04C167.273 16.624 166.217 16.416 165.129 16.416C163.081 16.416 161.513 17.008 160.425 18.192C159.369 19.376 158.841 20.944 158.841 22.896V36H152.889V18.624C152.889 16.064 152.761 13.776 152.505 11.76H158.121L158.601 16.032C159.209 14.464 160.169 13.264 161.481 12.432C162.793 11.6 164.281 11.184 165.945 11.184ZM192.433 24.192H175.729C175.857 26.784 176.497 28.704 177.649 29.952C178.833 31.168 180.577 31.776 182.881 31.776C185.537 31.776 188.001 30.912 190.273 29.184L192.001 33.312C190.849 34.24 189.425 34.992 187.729 35.568C186.065 36.112 184.369 36.384 182.641 36.384C178.673 36.384 175.553 35.264 173.281 33.024C171.009 30.784 169.873 27.712 169.873 23.808C169.873 21.344 170.369 19.152 171.361 17.232C172.353 15.312 173.745 13.824 175.537 12.768C177.329 11.68 179.361 11.136 181.633 11.136C184.961 11.136 187.585 12.224 189.505 14.4C191.457 16.544 192.433 19.504 192.433 23.28V24.192ZM181.777 15.456C180.177 15.456 178.865 15.936 177.841 16.896C176.849 17.824 176.209 19.184 175.921 20.976H187.201C187.009 19.152 186.449 17.776 185.521 16.848C184.625 15.92 183.377 15.456 181.777 15.456ZM218.73 24.192H202.026C202.154 26.784 202.794 28.704 203.946 29.952C205.13 31.168 206.874 31.776 209.178 31.776C211.834 31.776 214.298 30.912 216.57 29.184L218.298 33.312C217.146 34.24 215.722 34.992 214.026 35.568C212.362 36.112 210.666 36.384 208.938 36.384C204.97 36.384 201.85 35.264 199.578 33.024C197.306 30.784 196.17 27.712 196.17 23.808C196.17 21.344 196.666 19.152 197.658 17.232C198.65 15.312 200.042 13.824 201.834 12.768C203.626 11.68 205.658 11.136 207.93 11.136C211.258 11.136 213.882 12.224 215.802 14.4C217.754 16.544 218.73 19.504 218.73 23.28V24.192ZM208.074 15.456C206.474 15.456 205.162 15.936 204.138 16.896C203.146 17.824 202.506 19.184 202.218 20.976H213.498C213.306 19.152 212.746 17.776 211.818 16.848C210.922 15.92 209.674 15.456 208.074 15.456ZM246.995 0.671997V36H241.091V32.112C240.355 33.456 239.299 34.512 237.923 35.28C236.547 36.016 234.979 36.384 233.219 36.384C231.139 36.384 229.283 35.856 227.651 34.8C226.019 33.744 224.739 32.256 223.811 30.336C222.915 28.384 222.467 26.16 222.467 23.664C222.467 21.168 222.915 18.976 223.811 17.088C224.707 15.2 225.971 13.744 227.603 12.72C229.235 11.664 231.107 11.136 233.219 11.136C234.947 11.136 236.483 11.504 237.827 12.24C239.203 12.944 240.259 13.952 240.995 15.264V0.671997H246.995ZM234.803 31.68C236.787 31.68 238.323 30.992 239.411 29.616C240.531 28.24 241.091 26.288 241.091 23.76C241.091 21.232 240.547 19.28 239.459 17.904C238.371 16.528 236.835 15.84 234.851 15.84C232.835 15.84 231.267 16.528 230.147 17.904C229.059 19.248 228.515 21.168 228.515 23.664C228.515 26.192 229.059 28.16 230.147 29.568C231.267 30.976 232.819 31.68 234.803 31.68ZM264.522 36.384C262.058 36.384 259.882 35.872 257.994 34.848C256.138 33.824 254.698 32.368 253.674 30.48C252.682 28.56 252.186 26.32 252.186 23.76C252.186 21.2 252.682 18.976 253.674 17.088C254.698 15.168 256.138 13.696 257.994 12.672C259.882 11.648 262.058 11.136 264.522 11.136C266.954 11.136 269.098 11.648 270.954 12.672C272.81 13.696 274.234 15.168 275.226 17.088C276.25 18.976 276.762 21.2 276.762 23.76C276.762 26.32 276.25 28.56 275.226 30.48C274.234 32.368 272.81 33.824 270.954 34.848C269.098 35.872 266.954 36.384 264.522 36.384ZM264.474 31.68C266.522 31.68 268.074 31.024 269.13 29.712C270.218 28.368 270.762 26.384 270.762 23.76C270.762 21.168 270.218 19.2 269.13 17.856C268.042 16.48 266.506 15.792 264.522 15.792C262.506 15.792 260.954 16.48 259.866 17.856C258.778 19.2 258.234 21.168 258.234 23.76C258.234 26.384 258.762 28.368 259.818 29.712C260.906 31.024 262.458 31.68 264.474 31.68ZM310.544 11.136C313.296 11.136 315.344 11.968 316.688 13.632C318.032 15.264 318.704 17.76 318.704 21.12V36H312.704V21.312C312.704 19.392 312.384 18.016 311.744 17.184C311.136 16.32 310.112 15.888 308.672 15.888C307.008 15.888 305.696 16.48 304.736 17.664C303.808 18.816 303.344 20.416 303.344 22.464V36H297.344V21.312C297.344 19.424 297.008 18.048 296.336 17.184C295.696 16.32 294.672 15.888 293.264 15.888C291.6 15.888 290.288 16.48 289.328 17.664C288.368 18.816 287.888 20.416 287.888 22.464V36H281.936V18.624C281.936 16.064 281.808 13.776 281.552 11.76H287.168L287.6 15.6C288.304 14.16 289.312 13.056 290.624 12.288C291.968 11.52 293.504 11.136 295.232 11.136C298.944 11.136 301.36 12.672 302.48 15.744C303.248 14.304 304.336 13.184 305.744 12.384C307.184 11.552 308.784 11.136 310.544 11.136ZM10.896 72.272V83.12C10.896 85.968 12.224 87.392 14.88 87.392C15.616 87.392 16.416 87.264 17.28 87.008V91.76C16.224 92.144 14.944 92.336 13.44 92.336C10.688 92.336 8.576 91.568 7.104 90.032C5.632 88.496 4.896 86.288 4.896 83.408V72.272H0.24V67.76H4.896V61.856L10.896 59.84V67.76H17.328V72.272H10.896ZM32.4435 92.384C29.9795 92.384 27.8035 91.872 25.9155 90.848C24.0595 89.824 22.6195 88.368 21.5955 86.48C20.6035 84.56 20.1075 82.32 20.1075 79.76C20.1075 77.2 20.6035 74.976 21.5955 73.088C22.6195 71.168 24.0595 69.696 25.9155 68.672C27.8035 67.648 29.9795 67.136 32.4435 67.136C34.8755 67.136 37.0195 67.648 38.8755 68.672C40.7315 69.696 42.1555 71.168 43.1475 73.088C44.1715 74.976 44.6835 77.2 44.6835 79.76C44.6835 82.32 44.1715 84.56 43.1475 86.48C42.1555 88.368 40.7315 89.824 38.8755 90.848C37.0195 91.872 34.8755 92.384 32.4435 92.384ZM32.3955 87.68C34.4435 87.68 35.9955 87.024 37.0515 85.712C38.1395 84.368 38.6835 82.384 38.6835 79.76C38.6835 77.168 38.1395 75.2 37.0515 73.856C35.9635 72.48 34.4275 71.792 32.4435 71.792C30.4275 71.792 28.8755 72.48 27.7875 73.856C26.6995 75.2 26.1555 77.168 26.1555 79.76C26.1555 82.384 26.6835 84.368 27.7395 85.712C28.8275 87.024 30.3795 87.68 32.3955 87.68ZM63.0296 92V67.76H68.9816V92H63.0296ZM62.6456 56.768H69.3176V62.672H62.6456V56.768ZM89.4173 67.136C95.2093 67.136 98.1053 70.464 98.1053 77.12V92H92.1053V77.408C92.1053 75.488 91.7373 74.096 91.0013 73.232C90.2653 72.336 89.1293 71.888 87.5933 71.888C85.7693 71.888 84.2973 72.48 83.1773 73.664C82.0573 74.816 81.4973 76.352 81.4973 78.272V92H75.5453V74.624C75.5453 72.064 75.4173 69.776 75.1613 67.76H80.7773L81.2093 71.744C82.0413 70.272 83.1613 69.136 84.5693 68.336C86.0093 67.536 87.6253 67.136 89.4173 67.136ZM118.339 67.136C124.131 67.136 127.027 70.464 127.027 77.12V92H121.027V77.408C121.027 75.488 120.659 74.096 119.923 73.232C119.187 72.336 118.051 71.888 116.515 71.888C114.691 71.888 113.219 72.48 112.099 73.664C110.979 74.816 110.419 76.352 110.419 78.272V92H104.467V74.624C104.467 72.064 104.339 69.776 104.083 67.76H109.699L110.131 71.744C110.963 70.272 112.083 69.136 113.491 68.336C114.931 67.536 116.547 67.136 118.339 67.136ZM144.381 92.384C141.917 92.384 139.741 91.872 137.853 90.848C135.997 89.824 134.557 88.368 133.533 86.48C132.541 84.56 132.045 82.32 132.045 79.76C132.045 77.2 132.541 74.976 133.533 73.088C134.557 71.168 135.997 69.696 137.853 68.672C139.741 67.648 141.917 67.136 144.381 67.136C146.813 67.136 148.957 67.648 150.813 68.672C152.669 69.696 154.093 71.168 155.085 73.088C156.109 74.976 156.621 77.2 156.621 79.76C156.621 82.32 156.109 84.56 155.085 86.48C154.093 88.368 152.669 89.824 150.813 90.848C148.957 91.872 146.813 92.384 144.381 92.384ZM144.333 87.68C146.381 87.68 147.933 87.024 148.989 85.712C150.077 84.368 150.621 82.384 150.621 79.76C150.621 77.168 150.077 75.2 148.989 73.856C147.901 72.48 146.365 71.792 144.381 71.792C142.365 71.792 140.813 72.48 139.725 73.856C138.637 75.2 138.093 77.168 138.093 79.76C138.093 82.384 138.621 84.368 139.677 85.712C140.765 87.024 142.317 87.68 144.333 87.68ZM178.365 67.808H184.317L173.709 92H168.477L158.013 67.808H164.301L171.261 85.184L178.365 67.808ZM210.198 67.76V92H204.294V88.112C203.558 89.456 202.502 90.512 201.126 91.28C199.75 92.016 198.182 92.384 196.422 92.384C194.31 92.384 192.438 91.872 190.806 90.848C189.174 89.824 187.91 88.368 187.014 86.48C186.118 84.592 185.67 82.4 185.67 79.904C185.67 77.408 186.118 75.2 187.014 73.28C187.942 71.328 189.222 69.824 190.854 68.768C192.486 67.68 194.342 67.136 196.422 67.136C198.182 67.136 199.75 67.52 201.126 68.288C202.502 69.024 203.558 70.064 204.294 71.408V67.76H210.198ZM198.054 87.68C200.038 87.68 201.574 86.992 202.662 85.616C203.75 84.24 204.294 82.304 204.294 79.808C204.294 77.248 203.75 75.28 202.662 73.904C201.574 72.528 200.022 71.84 198.006 71.84C196.022 71.84 194.47 72.56 193.35 74C192.262 75.408 191.718 77.376 191.718 79.904C191.718 82.4 192.262 84.32 193.35 85.664C194.47 87.008 196.038 87.68 198.054 87.68ZM224.365 72.272V83.12C224.365 85.968 225.693 87.392 228.349 87.392C229.085 87.392 229.885 87.264 230.749 87.008V91.76C229.693 92.144 228.413 92.336 226.909 92.336C224.157 92.336 222.045 91.568 220.573 90.032C219.101 88.496 218.365 86.288 218.365 83.408V72.272H213.709V67.76H218.365V61.856L224.365 59.84V67.76H230.797V72.272H224.365ZM256.136 80.192H239.432C239.56 82.784 240.2 84.704 241.352 85.952C242.536 87.168 244.28 87.776 246.584 87.776C249.24 87.776 251.704 86.912 253.976 85.184L255.704 89.312C254.552 90.24 253.128 90.992 251.432 91.568C249.768 92.112 248.072 92.384 246.344 92.384C242.376 92.384 239.256 91.264 236.984 89.024C234.712 86.784 233.576 83.712 233.576 79.808C233.576 77.344 234.072 75.152 235.064 73.232C236.056 71.312 237.448 69.824 239.24 68.768C241.032 67.68 243.064 67.136 245.336 67.136C248.664 67.136 251.288 68.224 253.208 70.4C255.16 72.544 256.136 75.504 256.136 79.28V80.192ZM245.48 71.456C243.88 71.456 242.568 71.936 241.544 72.896C240.552 73.824 239.912 75.184 239.624 76.976H250.904C250.712 75.152 250.152 73.776 249.224 72.848C248.328 71.92 247.08 71.456 245.48 71.456Z" fill="black"/>
</svg>
