<svg width="518" height="149" viewBox="0 0 518 149" fill="none" xmlns="http://www.w3.org/2000/svg">
<path d="M21.168 1.048H22.47L17.262 16H16.128L11.634 3.127L7.119 16H6.006L0.798 1.048H2.1L6.594 14.194L11.13 1.048L12.159 1.069L16.674 14.152L21.168 1.048ZM24.5019 10.582V10.645C24.5019 12.059 24.8239 13.144 25.4679 13.9C26.1259 14.642 27.0779 15.013 28.3239 15.013C29.5839 15.013 30.7389 14.579 31.7889 13.711L32.2929 14.719C31.8309 15.153 31.2429 15.503 30.5289 15.769C29.8149 16.021 29.0799 16.147 28.3239 16.147C26.7279 16.147 25.4679 15.664 24.5439 14.698C23.6199 13.732 23.1579 12.402 23.1579 10.708C23.1579 9.63 23.3609 8.678 23.7669 7.852C24.1869 7.012 24.7679 6.368 25.5099 5.92C26.2519 5.458 27.1059 5.227 28.0719 5.227C29.4579 5.227 30.5359 5.675 31.3059 6.571C32.0899 7.467 32.4819 8.713 32.4819 10.309V10.582H24.5019ZM28.0719 6.277C27.1059 6.277 26.3219 6.571 25.7199 7.159C25.1179 7.733 24.7399 8.545 24.5859 9.595H31.2639C31.1799 8.517 30.8649 7.698 30.3189 7.138C29.7729 6.564 29.0239 6.277 28.0719 6.277ZM49.5098 5.479V16H48.2288V13.984C47.9208 14.684 47.4518 15.223 46.8218 15.601C46.2058 15.965 45.4638 16.147 44.5958 16.147C43.6578 16.147 42.8318 15.93 42.1178 15.496C41.4178 15.048 40.8718 14.418 40.4798 13.606C40.1018 12.78 39.9128 11.821 39.9128 10.729C39.9128 9.637 40.1088 8.678 40.5008 7.852C40.8928 7.012 41.4388 6.368 42.1388 5.92C42.8528 5.458 43.6718 5.227 44.5958 5.227C45.4498 5.227 46.1848 5.409 46.8008 5.773C47.4308 6.137 47.9068 6.669 48.2288 7.369V5.479H49.5098ZM44.7848 15.013C45.8768 15.013 46.7238 14.635 47.3258 13.879C47.9278 13.123 48.2288 12.059 48.2288 10.687C48.2288 9.301 47.9278 8.23 47.3258 7.474C46.7238 6.718 45.8698 6.34 44.7638 6.34C43.6578 6.34 42.7968 6.732 42.1808 7.516C41.5648 8.286 41.2568 9.357 41.2568 10.729C41.2568 12.087 41.5648 13.144 42.1808 13.9C42.7968 14.642 43.6648 15.013 44.7848 15.013ZM57.528 5.227C57.878 5.227 58.186 5.255 58.452 5.311L58.389 6.466C58.123 6.41 57.801 6.382 57.423 6.382C56.359 6.382 55.561 6.725 55.029 7.411C54.511 8.083 54.252 8.888 54.252 9.826V16H52.992V8.398C52.992 7.306 52.936 6.333 52.824 5.479H54.042L54.21 7.432C54.476 6.718 54.903 6.172 55.491 5.794C56.093 5.416 56.772 5.227 57.528 5.227ZM60.7802 10.582V10.645C60.7802 12.059 61.1022 13.144 61.7462 13.9C62.4042 14.642 63.3562 15.013 64.6022 15.013C65.8622 15.013 67.0172 14.579 68.0672 13.711L68.5712 14.719C68.1092 15.153 67.5212 15.503 66.8072 15.769C66.0932 16.021 65.3582 16.147 64.6022 16.147C63.0062 16.147 61.7462 15.664 60.8222 14.698C59.8982 13.732 59.4362 12.402 59.4362 10.708C59.4362 9.63 59.6392 8.678 60.0452 7.852C60.4652 7.012 61.0462 6.368 61.7882 5.92C62.5302 5.458 63.3842 5.227 64.3502 5.227C65.7362 5.227 66.8142 5.675 67.5842 6.571C68.3682 7.467 68.7602 8.713 68.7602 10.309V10.582H60.7802ZM64.3502 6.277C63.3842 6.277 62.6002 6.571 61.9982 7.159C61.3962 7.733 61.0182 8.545 60.8642 9.595H67.5422C67.4582 8.517 67.1432 7.698 66.5972 7.138C66.0512 6.564 65.3022 6.277 64.3502 6.277ZM85.7881 5.479V16H84.5071V13.984C84.1991 14.684 83.7301 15.223 83.1001 15.601C82.4841 15.965 81.7421 16.147 80.8741 16.147C79.9361 16.147 79.1101 15.93 78.3961 15.496C77.6961 15.048 77.1501 14.418 76.7581 13.606C76.3801 12.78 76.1911 11.821 76.1911 10.729C76.1911 9.637 76.3871 8.678 76.7791 7.852C77.1711 7.012 77.7171 6.368 78.4171 5.92C79.1311 5.458 79.9501 5.227 80.8741 5.227C81.7281 5.227 82.4631 5.409 83.0791 5.773C83.7091 6.137 84.1851 6.669 84.5071 7.369V5.479H85.7881ZM81.0631 15.013C82.1551 15.013 83.0021 14.635 83.6041 13.879C84.2061 13.123 84.5071 12.059 84.5071 10.687C84.5071 9.301 84.2061 8.23 83.6041 7.474C83.0021 6.718 82.1481 6.34 81.0421 6.34C79.9361 6.34 79.0751 6.732 78.4591 7.516C77.8431 8.286 77.5351 9.357 77.5351 10.729C77.5351 12.087 77.8431 13.144 78.4591 13.9C79.0751 14.642 79.9431 15.013 81.0631 15.013ZM96.4079 6.508V12.766C96.4079 13.606 96.5689 14.187 96.8909 14.509C97.2129 14.831 97.6889 14.992 98.3189 14.992C98.7109 14.992 99.0889 14.929 99.4529 14.803V15.958C99.0049 16.07 98.5499 16.126 98.0879 16.126C97.1639 16.126 96.4359 15.867 95.9039 15.349C95.3859 14.831 95.1269 14.054 95.1269 13.018V6.508H93.0479V5.479H95.1269V2.686L96.4079 2.203V5.479H99.5159V6.508H96.4079ZM102.37 10.582V10.645C102.37 12.059 102.692 13.144 103.336 13.9C103.994 14.642 104.946 15.013 106.192 15.013C107.452 15.013 108.607 14.579 109.657 13.711L110.161 14.719C109.699 15.153 109.111 15.503 108.397 15.769C107.683 16.021 106.948 16.147 106.192 16.147C104.596 16.147 103.336 15.664 102.412 14.698C101.488 13.732 101.026 12.402 101.026 10.708C101.026 9.63 101.229 8.678 101.635 7.852C102.055 7.012 102.636 6.368 103.378 5.92C104.12 5.458 104.974 5.227 105.94 5.227C107.326 5.227 108.404 5.675 109.174 6.571C109.958 7.467 110.35 8.713 110.35 10.309V10.582H102.37ZM105.94 6.277C104.974 6.277 104.19 6.571 103.588 7.159C102.986 7.733 102.608 8.545 102.454 9.595H109.132C109.048 8.517 108.733 7.698 108.187 7.138C107.641 6.564 106.892 6.277 105.94 6.277ZM117.363 16.147C116.369 16.147 115.501 15.923 114.759 15.475C114.017 15.027 113.443 14.397 113.037 13.585C112.631 12.759 112.428 11.807 112.428 10.729C112.428 9.637 112.631 8.678 113.037 7.852C113.443 7.012 114.024 6.368 114.78 5.92C115.536 5.458 116.411 5.227 117.405 5.227C118.119 5.227 118.798 5.353 119.442 5.605C120.1 5.843 120.639 6.179 121.059 6.613L120.555 7.621C120.009 7.173 119.484 6.851 118.98 6.655C118.49 6.445 117.979 6.34 117.447 6.34C116.313 6.34 115.417 6.732 114.759 7.516C114.101 8.286 113.772 9.357 113.772 10.729C113.772 12.073 114.094 13.123 114.738 13.879C115.396 14.635 116.299 15.013 117.447 15.013C117.979 15.013 118.49 14.915 118.98 14.719C119.484 14.509 120.009 14.187 120.555 13.753L121.059 14.74C120.611 15.174 120.051 15.517 119.379 15.769C118.721 16.021 118.049 16.147 117.363 16.147ZM128.288 5.227C130.822 5.227 132.089 6.585 132.089 9.301V16H130.808V9.385C130.808 8.335 130.591 7.565 130.157 7.075C129.737 6.585 129.072 6.34 128.162 6.34C127.112 6.34 126.265 6.662 125.621 7.306C124.977 7.95 124.655 8.818 124.655 9.91V16H123.395V0.543999H124.655V7.306C124.991 6.62 125.474 6.102 126.104 5.752C126.734 5.402 127.462 5.227 128.288 5.227ZM145.803 5.227C146.727 5.227 147.539 5.458 148.239 5.92C148.953 6.368 149.506 7.012 149.898 7.852C150.29 8.678 150.486 9.637 150.486 10.729C150.486 11.821 150.29 12.773 149.898 13.585C149.52 14.397 148.974 15.027 148.26 15.475C147.546 15.923 146.727 16.147 145.803 16.147C144.921 16.147 144.165 15.958 143.535 15.58C142.919 15.188 142.457 14.628 142.149 13.9V20.536H140.889V8.398C140.889 7.306 140.833 6.333 140.721 5.479H141.939L142.107 7.537C142.415 6.795 142.884 6.228 143.514 5.836C144.158 5.43 144.921 5.227 145.803 5.227ZM145.635 15.013C146.741 15.013 147.602 14.642 148.218 13.9C148.834 13.144 149.142 12.087 149.142 10.729C149.142 9.357 148.834 8.286 148.218 7.516C147.602 6.732 146.748 6.34 145.656 6.34C144.536 6.34 143.675 6.718 143.073 7.474C142.471 8.23 142.17 9.301 142.17 10.687C142.17 12.059 142.471 13.123 143.073 13.879C143.675 14.635 144.529 15.013 145.635 15.013ZM162.221 5.479V16H160.94V13.984C160.632 14.684 160.163 15.223 159.533 15.601C158.917 15.965 158.175 16.147 157.307 16.147C156.369 16.147 155.543 15.93 154.829 15.496C154.129 15.048 153.583 14.418 153.191 13.606C152.813 12.78 152.624 11.821 152.624 10.729C152.624 9.637 152.82 8.678 153.212 7.852C153.604 7.012 154.15 6.368 154.85 5.92C155.564 5.458 156.383 5.227 157.307 5.227C158.161 5.227 158.896 5.409 159.512 5.773C160.142 6.137 160.618 6.669 160.94 7.369V5.479H162.221ZM157.496 15.013C158.588 15.013 159.435 14.635 160.037 13.879C160.639 13.123 160.94 12.059 160.94 10.687C160.94 9.301 160.639 8.23 160.037 7.474C159.435 6.718 158.581 6.34 157.475 6.34C156.369 6.34 155.508 6.732 154.892 7.516C154.276 8.286 153.968 9.357 153.968 10.729C153.968 12.087 154.276 13.144 154.892 13.9C155.508 14.642 156.376 15.013 157.496 15.013ZM170.239 5.227C170.589 5.227 170.897 5.255 171.163 5.311L171.1 6.466C170.834 6.41 170.512 6.382 170.134 6.382C169.07 6.382 168.272 6.725 167.74 7.411C167.222 8.083 166.963 8.888 166.963 9.826V16H165.703V8.398C165.703 7.306 165.647 6.333 165.535 5.479H166.753L166.921 7.432C167.187 6.718 167.614 6.172 168.202 5.794C168.804 5.416 169.483 5.227 170.239 5.227ZM175.568 6.508V12.766C175.568 13.606 175.729 14.187 176.051 14.509C176.373 14.831 176.849 14.992 177.479 14.992C177.871 14.992 178.249 14.929 178.613 14.803V15.958C178.165 16.07 177.71 16.126 177.248 16.126C176.324 16.126 175.596 15.867 175.064 15.349C174.546 14.831 174.287 14.054 174.287 13.018V6.508H172.208V5.479H174.287V2.686L175.568 2.203V5.479H178.676V6.508H175.568ZM185.751 5.227C188.285 5.227 189.552 6.585 189.552 9.301V16H188.271V9.385C188.271 8.335 188.054 7.565 187.62 7.075C187.2 6.585 186.535 6.34 185.625 6.34C184.575 6.34 183.728 6.662 183.084 7.306C182.44 7.95 182.118 8.818 182.118 9.91V16H180.858V8.398C180.858 7.306 180.802 6.333 180.69 5.479H181.908L182.076 7.411C182.398 6.697 182.881 6.158 183.525 5.794C184.169 5.416 184.911 5.227 185.751 5.227ZM193.671 10.582V10.645C193.671 12.059 193.993 13.144 194.637 13.9C195.295 14.642 196.247 15.013 197.493 15.013C198.753 15.013 199.908 14.579 200.958 13.711L201.462 14.719C201 15.153 200.412 15.503 199.698 15.769C198.984 16.021 198.249 16.147 197.493 16.147C195.897 16.147 194.637 15.664 193.713 14.698C192.789 13.732 192.327 12.402 192.327 10.708C192.327 9.63 192.53 8.678 192.936 7.852C193.356 7.012 193.937 6.368 194.679 5.92C195.421 5.458 196.275 5.227 197.241 5.227C198.627 5.227 199.705 5.675 200.475 6.571C201.259 7.467 201.651 8.713 201.651 10.309V10.582H193.671ZM197.241 6.277C196.275 6.277 195.491 6.571 194.889 7.159C194.287 7.733 193.909 8.545 193.755 9.595H200.433C200.349 8.517 200.034 7.698 199.488 7.138C198.942 6.564 198.193 6.277 197.241 6.277ZM208.937 5.227C209.287 5.227 209.595 5.255 209.861 5.311L209.798 6.466C209.532 6.41 209.21 6.382 208.832 6.382C207.768 6.382 206.97 6.725 206.438 7.411C205.92 8.083 205.661 8.888 205.661 9.826V16H204.401V8.398C204.401 7.306 204.345 6.333 204.233 5.479H205.451L205.619 7.432C205.885 6.718 206.312 6.172 206.9 5.794C207.502 5.416 208.181 5.227 208.937 5.227ZM220.708 1.615C220.106 1.615 219.644 1.776 219.322 2.098C219 2.42 218.839 2.994 218.839 3.82V5.479H221.548V6.508H218.839V16H217.558V6.508H215.5V5.479H217.558V3.589C217.558 2.539 217.817 1.755 218.335 1.237C218.853 0.719 219.567 0.46 220.477 0.46C220.897 0.46 221.331 0.515999 221.779 0.627999V1.783C221.401 1.671 221.044 1.615 220.708 1.615ZM227.96 16.147C226.994 16.147 226.14 15.923 225.398 15.475C224.67 15.027 224.103 14.39 223.697 13.564C223.305 12.738 223.109 11.779 223.109 10.687C223.109 9.595 223.305 8.636 223.697 7.81C224.103 6.984 224.67 6.347 225.398 5.899C226.14 5.451 226.994 5.227 227.96 5.227C228.912 5.227 229.752 5.451 230.48 5.899C231.208 6.347 231.768 6.984 232.16 7.81C232.566 8.636 232.769 9.595 232.769 10.687C232.769 11.779 232.566 12.738 232.16 13.564C231.768 14.39 231.208 15.027 230.48 15.475C229.752 15.923 228.912 16.147 227.96 16.147ZM227.939 15.013C229.059 15.013 229.92 14.642 230.522 13.9C231.138 13.144 231.446 12.073 231.446 10.687C231.446 9.315 231.138 8.251 230.522 7.495C229.906 6.725 229.052 6.34 227.96 6.34C226.854 6.34 225.993 6.725 225.377 7.495C224.761 8.251 224.453 9.315 224.453 10.687C224.453 12.087 224.754 13.158 225.356 13.9C225.958 14.642 226.819 15.013 227.939 15.013ZM240.109 5.227C240.459 5.227 240.767 5.255 241.033 5.311L240.97 6.466C240.704 6.41 240.382 6.382 240.004 6.382C238.94 6.382 238.142 6.725 237.61 7.411C237.092 8.083 236.833 8.888 236.833 9.826V16H235.573V8.398C235.573 7.306 235.517 6.333 235.405 5.479H236.623L236.791 7.432C237.057 6.718 237.484 6.172 238.072 5.794C238.674 5.416 239.353 5.227 240.109 5.227ZM250.032 6.508V12.766C250.032 13.606 250.193 14.187 250.515 14.509C250.837 14.831 251.313 14.992 251.943 14.992C252.335 14.992 252.713 14.929 253.077 14.803V15.958C252.629 16.07 252.174 16.126 251.712 16.126C250.788 16.126 250.06 15.867 249.528 15.349C249.01 14.831 248.751 14.054 248.751 13.018V6.508H246.672V5.479H248.751V2.686L250.032 2.203V5.479H253.14V6.508H250.032ZM260.215 5.227C262.749 5.227 264.016 6.585 264.016 9.301V16H262.735V9.385C262.735 8.335 262.518 7.565 262.084 7.075C261.664 6.585 260.999 6.34 260.089 6.34C259.039 6.34 258.192 6.662 257.548 7.306C256.904 7.95 256.582 8.818 256.582 9.91V16H255.322V0.543999H256.582V7.306C256.918 6.62 257.401 6.102 258.031 5.752C258.661 5.402 259.389 5.227 260.215 5.227ZM271.642 16.147C270.676 16.147 269.822 15.923 269.08 15.475C268.352 15.027 267.785 14.39 267.379 13.564C266.987 12.738 266.791 11.779 266.791 10.687C266.791 9.595 266.987 8.636 267.379 7.81C267.785 6.984 268.352 6.347 269.08 5.899C269.822 5.451 270.676 5.227 271.642 5.227C272.594 5.227 273.434 5.451 274.162 5.899C274.89 6.347 275.45 6.984 275.842 7.81C276.248 8.636 276.451 9.595 276.451 10.687C276.451 11.779 276.248 12.738 275.842 13.564C275.45 14.39 274.89 15.027 274.162 15.475C273.434 15.923 272.594 16.147 271.642 16.147ZM271.621 15.013C272.741 15.013 273.602 14.642 274.204 13.9C274.82 13.144 275.128 12.073 275.128 10.687C275.128 9.315 274.82 8.251 274.204 7.495C273.588 6.725 272.734 6.34 271.642 6.34C270.536 6.34 269.675 6.725 269.059 7.495C268.443 8.251 268.135 9.315 268.135 10.687C268.135 12.087 268.436 13.158 269.038 13.9C269.64 14.642 270.501 15.013 271.621 15.013ZM282.678 16.147C280.97 16.147 279.619 15.678 278.625 14.74L279.087 13.753C279.647 14.215 280.207 14.544 280.767 14.74C281.341 14.936 281.999 15.034 282.741 15.034C283.609 15.034 284.267 14.887 284.715 14.593C285.177 14.285 285.408 13.844 285.408 13.27C285.408 12.794 285.254 12.423 284.946 12.157C284.652 11.877 284.162 11.653 283.476 11.485L281.691 11.086C280.851 10.89 280.186 10.54 279.696 10.036C279.22 9.532 278.982 8.944 278.982 8.272C278.982 7.348 279.332 6.613 280.032 6.067C280.746 5.507 281.691 5.227 282.867 5.227C283.609 5.227 284.295 5.346 284.925 5.584C285.569 5.822 286.101 6.165 286.521 6.613L286.038 7.6C285.072 6.76 284.015 6.34 282.867 6.34C282.055 6.34 281.425 6.501 280.977 6.823C280.529 7.145 280.305 7.593 280.305 8.167C280.305 8.643 280.445 9.028 280.725 9.322C281.019 9.616 281.467 9.833 282.069 9.973L283.875 10.414C285.765 10.834 286.71 11.765 286.71 13.207C286.71 14.089 286.346 14.803 285.618 15.349C284.89 15.881 283.91 16.147 282.678 16.147ZM290.304 10.582V10.645C290.304 12.059 290.626 13.144 291.27 13.9C291.928 14.642 292.88 15.013 294.126 15.013C295.386 15.013 296.541 14.579 297.591 13.711L298.095 14.719C297.633 15.153 297.045 15.503 296.331 15.769C295.617 16.021 294.882 16.147 294.126 16.147C292.53 16.147 291.27 15.664 290.346 14.698C289.422 13.732 288.96 12.402 288.96 10.708C288.96 9.63 289.163 8.678 289.569 7.852C289.989 7.012 290.57 6.368 291.312 5.92C292.054 5.458 292.908 5.227 293.874 5.227C295.26 5.227 296.338 5.675 297.108 6.571C297.892 7.467 298.284 8.713 298.284 10.309V10.582H290.304ZM293.874 6.277C292.908 6.277 292.124 6.571 291.522 7.159C290.92 7.733 290.542 8.545 290.388 9.595H297.066C296.982 8.517 296.667 7.698 296.121 7.138C295.575 6.564 294.826 6.277 293.874 6.277ZM320.751 5.479H322.053L318.231 16H316.908L313.716 7.117L310.503 16H309.159L305.358 5.479H306.723L309.831 14.467L313.107 5.479H314.388L317.559 14.467L320.751 5.479ZM329.408 5.227C331.942 5.227 333.209 6.585 333.209 9.301V16H331.928V9.385C331.928 8.335 331.711 7.565 331.277 7.075C330.857 6.585 330.192 6.34 329.282 6.34C328.232 6.34 327.385 6.662 326.741 7.306C326.097 7.95 325.775 8.818 325.775 9.91V16H324.515V0.543999H325.775V7.306C326.111 6.62 326.594 6.102 327.224 5.752C327.854 5.402 328.582 5.227 329.408 5.227ZM340.835 16.147C339.869 16.147 339.015 15.923 338.273 15.475C337.545 15.027 336.978 14.39 336.572 13.564C336.18 12.738 335.984 11.779 335.984 10.687C335.984 9.595 336.18 8.636 336.572 7.81C336.978 6.984 337.545 6.347 338.273 5.899C339.015 5.451 339.869 5.227 340.835 5.227C341.787 5.227 342.627 5.451 343.355 5.899C344.083 6.347 344.643 6.984 345.035 7.81C345.441 8.636 345.644 9.595 345.644 10.687C345.644 11.779 345.441 12.738 345.035 13.564C344.643 14.39 344.083 15.027 343.355 15.475C342.627 15.923 341.787 16.147 340.835 16.147ZM340.814 15.013C341.934 15.013 342.795 14.642 343.397 13.9C344.013 13.144 344.321 12.073 344.321 10.687C344.321 9.315 344.013 8.251 343.397 7.495C342.781 6.725 341.927 6.34 340.835 6.34C339.729 6.34 338.868 6.725 338.252 7.495C337.636 8.251 337.328 9.315 337.328 10.687C337.328 12.087 337.629 13.158 338.231 13.9C338.833 14.642 339.694 15.013 340.814 15.013ZM368.165 5.479H369.467L365.645 16H364.322L361.13 7.117L357.917 16H356.573L352.772 5.479H354.137L357.245 14.467L360.521 5.479H361.802L364.973 14.467L368.165 5.479ZM380.752 5.479V16H379.471V13.984C379.163 14.684 378.694 15.223 378.064 15.601C377.448 15.965 376.706 16.147 375.838 16.147C374.9 16.147 374.074 15.93 373.36 15.496C372.66 15.048 372.114 14.418 371.722 13.606C371.344 12.78 371.155 11.821 371.155 10.729C371.155 9.637 371.351 8.678 371.743 7.852C372.135 7.012 372.681 6.368 373.381 5.92C374.095 5.458 374.914 5.227 375.838 5.227C376.692 5.227 377.427 5.409 378.043 5.773C378.673 6.137 379.149 6.669 379.471 7.369V5.479H380.752ZM376.027 15.013C377.119 15.013 377.966 14.635 378.568 13.879C379.17 13.123 379.471 12.059 379.471 10.687C379.471 9.301 379.17 8.23 378.568 7.474C377.966 6.718 377.112 6.34 376.006 6.34C374.9 6.34 374.039 6.732 373.423 7.516C372.807 8.286 372.499 9.357 372.499 10.729C372.499 12.087 372.807 13.144 373.423 13.9C374.039 14.642 374.907 15.013 376.027 15.013ZM389.127 5.227C391.661 5.227 392.928 6.585 392.928 9.301V16H391.647V9.385C391.647 8.335 391.43 7.565 390.996 7.075C390.576 6.585 389.911 6.34 389.001 6.34C387.951 6.34 387.104 6.662 386.46 7.306C385.816 7.95 385.494 8.818 385.494 9.91V16H384.234V8.398C384.234 7.306 384.178 6.333 384.066 5.479H385.284L385.452 7.411C385.774 6.697 386.257 6.158 386.901 5.794C387.545 5.416 388.287 5.227 389.127 5.227ZM398.16 6.508V12.766C398.16 13.606 398.321 14.187 398.643 14.509C398.965 14.831 399.441 14.992 400.071 14.992C400.463 14.992 400.841 14.929 401.205 14.803V15.958C400.757 16.07 400.302 16.126 399.84 16.126C398.916 16.126 398.188 15.867 397.656 15.349C397.138 14.831 396.879 14.054 396.879 13.018V6.508H394.8V5.479H396.879V2.686L398.16 2.203V5.479H401.268V6.508H398.16ZM410.588 6.508V12.766C410.588 13.606 410.749 14.187 411.071 14.509C411.393 14.831 411.869 14.992 412.499 14.992C412.891 14.992 413.269 14.929 413.633 14.803V15.958C413.185 16.07 412.73 16.126 412.268 16.126C411.344 16.126 410.616 15.867 410.084 15.349C409.566 14.831 409.307 14.054 409.307 13.018V6.508H407.228V5.479H409.307V2.686L410.588 2.203V5.479H413.696V6.508H410.588ZM420.057 16.147C419.091 16.147 418.237 15.923 417.495 15.475C416.767 15.027 416.2 14.39 415.794 13.564C415.402 12.738 415.206 11.779 415.206 10.687C415.206 9.595 415.402 8.636 415.794 7.81C416.2 6.984 416.767 6.347 417.495 5.899C418.237 5.451 419.091 5.227 420.057 5.227C421.009 5.227 421.849 5.451 422.577 5.899C423.305 6.347 423.865 6.984 424.257 7.81C424.663 8.636 424.866 9.595 424.866 10.687C424.866 11.779 424.663 12.738 424.257 13.564C423.865 14.39 423.305 15.027 422.577 15.475C421.849 15.923 421.009 16.147 420.057 16.147ZM420.036 15.013C421.156 15.013 422.017 14.642 422.619 13.9C423.235 13.144 423.543 12.073 423.543 10.687C423.543 9.315 423.235 8.251 422.619 7.495C422.003 6.725 421.149 6.34 420.057 6.34C418.951 6.34 418.09 6.725 417.474 7.495C416.858 8.251 416.55 9.315 416.55 10.687C416.55 12.087 416.851 13.158 417.453 13.9C418.055 14.642 418.916 15.013 420.036 15.013ZM433.022 16V5.479H434.282V16H433.022ZM432.833 1.132H434.534V2.77H432.833V1.132ZM442.694 5.227C445.228 5.227 446.495 6.585 446.495 9.301V16H445.214V9.385C445.214 8.335 444.997 7.565 444.563 7.075C444.143 6.585 443.478 6.34 442.568 6.34C441.518 6.34 440.671 6.662 440.027 7.306C439.383 7.95 439.061 8.818 439.061 9.91V16H437.801V8.398C437.801 7.306 437.745 6.333 437.633 5.479H438.851L439.019 7.411C439.341 6.697 439.824 6.158 440.468 5.794C441.112 5.416 441.854 5.227 442.694 5.227ZM454.834 5.227C457.368 5.227 458.635 6.585 458.635 9.301V16H457.354V9.385C457.354 8.335 457.137 7.565 456.703 7.075C456.283 6.585 455.618 6.34 454.708 6.34C453.658 6.34 452.811 6.662 452.167 7.306C451.523 7.95 451.201 8.818 451.201 9.91V16H449.941V8.398C449.941 7.306 449.885 6.333 449.773 5.479H450.991L451.159 7.411C451.481 6.697 451.964 6.158 452.608 5.794C453.252 5.416 453.994 5.227 454.834 5.227ZM466.261 16.147C465.295 16.147 464.441 15.923 463.699 15.475C462.971 15.027 462.404 14.39 461.998 13.564C461.606 12.738 461.41 11.779 461.41 10.687C461.41 9.595 461.606 8.636 461.998 7.81C462.404 6.984 462.971 6.347 463.699 5.899C464.441 5.451 465.295 5.227 466.261 5.227C467.213 5.227 468.053 5.451 468.781 5.899C469.509 6.347 470.069 6.984 470.461 7.81C470.867 8.636 471.07 9.595 471.07 10.687C471.07 11.779 470.867 12.738 470.461 13.564C470.069 14.39 469.509 15.027 468.781 15.475C468.053 15.923 467.213 16.147 466.261 16.147ZM466.24 15.013C467.36 15.013 468.221 14.642 468.823 13.9C469.439 13.144 469.747 12.073 469.747 10.687C469.747 9.315 469.439 8.251 468.823 7.495C468.207 6.725 467.353 6.34 466.261 6.34C465.155 6.34 464.294 6.725 463.678 7.495C463.062 8.251 462.754 9.315 462.754 10.687C462.754 12.087 463.055 13.158 463.657 13.9C464.259 14.642 465.12 15.013 466.24 15.013ZM481.394 5.479H482.696L478.181 16H476.858L472.406 5.479H473.771L477.572 14.719L481.394 5.479ZM493.627 5.479V16H492.346V13.984C492.038 14.684 491.569 15.223 490.939 15.601C490.323 15.965 489.581 16.147 488.713 16.147C487.775 16.147 486.949 15.93 486.235 15.496C485.535 15.048 484.989 14.418 484.597 13.606C484.219 12.78 484.03 11.821 484.03 10.729C484.03 9.637 484.226 8.678 484.618 7.852C485.01 7.012 485.556 6.368 486.256 5.92C486.97 5.458 487.789 5.227 488.713 5.227C489.567 5.227 490.302 5.409 490.918 5.773C491.548 6.137 492.024 6.669 492.346 7.369V5.479H493.627ZM488.902 15.013C489.994 15.013 490.841 14.635 491.443 13.879C492.045 13.123 492.346 12.059 492.346 10.687C492.346 9.301 492.045 8.23 491.443 7.474C490.841 6.718 489.987 6.34 488.881 6.34C487.775 6.34 486.914 6.732 486.298 7.516C485.682 8.286 485.374 9.357 485.374 10.729C485.374 12.087 485.682 13.144 486.298 13.9C486.914 14.642 487.782 15.013 488.902 15.013ZM498.894 6.508V12.766C498.894 13.606 499.055 14.187 499.377 14.509C499.699 14.831 500.175 14.992 500.805 14.992C501.197 14.992 501.575 14.929 501.939 14.803V15.958C501.491 16.07 501.036 16.126 500.574 16.126C499.65 16.126 498.922 15.867 498.39 15.349C497.872 14.831 497.613 14.054 497.613 13.018V6.508H495.534V5.479H497.613V2.686L498.894 2.203V5.479H502.002V6.508H498.894ZM504.856 10.582V10.645C504.856 12.059 505.178 13.144 505.822 13.9C506.48 14.642 507.432 15.013 508.678 15.013C509.938 15.013 511.093 14.579 512.143 13.711L512.647 14.719C512.185 15.153 511.597 15.503 510.883 15.769C510.169 16.021 509.434 16.147 508.678 16.147C507.082 16.147 505.822 15.664 504.898 14.698C503.974 13.732 503.512 12.402 503.512 10.708C503.512 9.63 503.715 8.678 504.121 7.852C504.541 7.012 505.122 6.368 505.864 5.92C506.606 5.458 507.46 5.227 508.426 5.227C509.812 5.227 510.89 5.675 511.66 6.571C512.444 7.467 512.836 8.713 512.836 10.309V10.582H504.856ZM508.426 6.277C507.46 6.277 506.676 6.571 506.074 7.159C505.472 7.733 505.094 8.545 504.94 9.595H511.618C511.534 8.517 511.219 7.698 510.673 7.138C510.127 6.564 509.378 6.277 508.426 6.277ZM515.293 14.173H517.078V16H515.293V14.173ZM1.932 48V33.048H3.234V48H1.932ZM8.69597 38.508V44.766C8.69597 45.606 8.85697 46.187 9.17897 46.509C9.50097 46.831 9.97697 46.992 10.607 46.992C10.999 46.992 11.377 46.929 11.741 46.803V47.958C11.293 48.07 10.838 48.126 10.376 48.126C9.45197 48.126 8.72397 47.867 8.19197 47.349C7.67397 46.831 7.41497 46.054 7.41497 45.018V38.508H5.33597V37.479H7.41497V34.686L8.69597 34.203V37.479H11.804V38.508H8.69597ZM15.2926 33.048V34.392C15.2926 34.924 15.2086 35.414 15.0406 35.862C14.8726 36.296 14.5926 36.716 14.2006 37.122L13.5286 36.597C14.0046 36.065 14.2706 35.491 14.3266 34.875H13.5076V33.048H15.2926ZM21.2441 48.147C19.5361 48.147 18.1851 47.678 17.1911 46.74L17.6531 45.753C18.2131 46.215 18.7731 46.544 19.3331 46.74C19.9071 46.936 20.5651 47.034 21.3071 47.034C22.1751 47.034 22.8331 46.887 23.2811 46.593C23.7431 46.285 23.9741 45.844 23.9741 45.27C23.9741 44.794 23.8201 44.423 23.5121 44.157C23.2181 43.877 22.7281 43.653 22.0421 43.485L20.2571 43.086C19.4171 42.89 18.7521 42.54 18.2621 42.036C17.7861 41.532 17.5481 40.944 17.5481 40.272C17.5481 39.348 17.8981 38.613 18.5981 38.067C19.3121 37.507 20.2571 37.227 21.4331 37.227C22.1751 37.227 22.8611 37.346 23.4911 37.584C24.1351 37.822 24.6671 38.165 25.0871 38.613L24.6041 39.6C23.6381 38.76 22.5811 38.34 21.4331 38.34C20.6211 38.34 19.9911 38.501 19.5431 38.823C19.0951 39.145 18.8711 39.593 18.8711 40.167C18.8711 40.643 19.0111 41.028 19.2911 41.322C19.5851 41.616 20.0331 41.833 20.6351 41.973L22.4411 42.414C24.3311 42.834 25.2761 43.765 25.2761 45.207C25.2761 46.089 24.9121 46.803 24.1841 47.349C23.4561 47.881 22.4761 48.147 21.2441 48.147ZM35.3356 38.508V44.766C35.3356 45.606 35.4966 46.187 35.8186 46.509C36.1406 46.831 36.6166 46.992 37.2466 46.992C37.6386 46.992 38.0166 46.929 38.3806 46.803V47.958C37.9326 48.07 37.4776 48.126 37.0156 48.126C36.0916 48.126 35.3636 47.867 34.8316 47.349C34.3136 46.831 34.0546 46.054 34.0546 45.018V38.508H31.9756V37.479H34.0546V34.686L35.3356 34.203V37.479H38.4436V38.508H35.3356ZM40.6258 48V37.479H41.8858V48H40.6258ZM40.4368 33.132H42.1378V34.77H40.4368V33.132ZM56.7441 37.227C59.0681 37.227 60.2301 38.585 60.2301 41.301V48H58.9491V41.385C58.9491 40.321 58.7601 39.551 58.3821 39.075C58.0041 38.585 57.4021 38.34 56.5761 38.34C55.6101 38.34 54.8471 38.662 54.2871 39.306C53.7411 39.95 53.4681 40.825 53.4681 41.931V48H52.1871V41.385C52.1871 40.321 51.9911 39.551 51.5991 39.075C51.2211 38.585 50.6191 38.34 49.7931 38.34C48.8411 38.34 48.0781 38.662 47.5041 39.306C46.9441 39.95 46.6641 40.825 46.6641 41.931V48H45.4041V40.398C45.4041 39.306 45.3481 38.333 45.2361 37.479H46.4541L46.6221 39.369C46.9161 38.669 47.3501 38.137 47.9241 37.773C48.5121 37.409 49.1911 37.227 49.9611 37.227C51.6551 37.227 52.7401 37.913 53.2161 39.285C53.5101 38.641 53.9651 38.137 54.5811 37.773C55.2111 37.409 55.9321 37.227 56.7441 37.227ZM64.3281 42.582V42.645C64.3281 44.059 64.6501 45.144 65.2941 45.9C65.9521 46.642 66.9041 47.013 68.1501 47.013C69.4101 47.013 70.5651 46.579 71.6151 45.711L72.1191 46.719C71.6571 47.153 71.0691 47.503 70.3551 47.769C69.6411 48.021 68.9061 48.147 68.1501 48.147C66.5541 48.147 65.2941 47.664 64.3701 46.698C63.4461 45.732 62.9841 44.402 62.9841 42.708C62.9841 41.63 63.1871 40.678 63.5931 39.852C64.0131 39.012 64.5941 38.368 65.3361 37.92C66.0781 37.458 66.9321 37.227 67.8981 37.227C69.2841 37.227 70.3621 37.675 71.1321 38.571C71.9161 39.467 72.3081 40.713 72.3081 42.309V42.582H64.3281ZM67.8981 38.277C66.9321 38.277 66.1481 38.571 65.5461 39.159C64.9441 39.733 64.5661 40.545 64.4121 41.595H71.0901C71.0061 40.517 70.6911 39.698 70.1451 39.138C69.5991 38.564 68.8501 38.277 67.8981 38.277ZM84.044 33.615C83.442 33.615 82.98 33.776 82.658 34.098C82.336 34.42 82.175 34.994 82.175 35.82V37.479H84.884V38.508H82.175V48H80.894V38.508H78.836V37.479H80.894V35.589C80.894 34.539 81.153 33.755 81.671 33.237C82.189 32.719 82.903 32.46 83.813 32.46C84.233 32.46 84.667 32.516 85.115 32.628V33.783C84.737 33.671 84.38 33.615 84.044 33.615ZM91.296 48.147C90.33 48.147 89.476 47.923 88.734 47.475C88.006 47.027 87.439 46.39 87.033 45.564C86.641 44.738 86.445 43.779 86.445 42.687C86.445 41.595 86.641 40.636 87.033 39.81C87.439 38.984 88.006 38.347 88.734 37.899C89.476 37.451 90.33 37.227 91.296 37.227C92.248 37.227 93.088 37.451 93.816 37.899C94.544 38.347 95.104 38.984 95.496 39.81C95.902 40.636 96.105 41.595 96.105 42.687C96.105 43.779 95.902 44.738 95.496 45.564C95.104 46.39 94.544 47.027 93.816 47.475C93.088 47.923 92.248 48.147 91.296 48.147ZM91.275 47.013C92.395 47.013 93.256 46.642 93.858 45.9C94.474 45.144 94.782 44.073 94.782 42.687C94.782 41.315 94.474 40.251 93.858 39.495C93.242 38.725 92.388 38.34 91.296 38.34C90.19 38.34 89.329 38.725 88.713 39.495C88.097 40.251 87.789 41.315 87.789 42.687C87.789 44.087 88.09 45.158 88.692 45.9C89.294 46.642 90.155 47.013 91.275 47.013ZM103.445 37.227C103.795 37.227 104.103 37.255 104.369 37.311L104.306 38.466C104.04 38.41 103.718 38.382 103.34 38.382C102.276 38.382 101.478 38.725 100.946 39.411C100.428 40.083 100.169 40.888 100.169 41.826V48H98.909V40.398C98.909 39.306 98.853 38.333 98.741 37.479H99.959L100.127 39.432C100.393 38.718 100.82 38.172 101.408 37.794C102.01 37.416 102.689 37.227 103.445 37.227ZM120.508 37.479L115.552 49.092C115.062 50.24 114.446 51.08 113.704 51.612C112.976 52.158 112.059 52.543 110.953 52.767L110.701 51.759C111.709 51.521 112.465 51.213 112.969 50.835C113.487 50.457 113.921 49.862 114.271 49.05L114.712 48.021L110.218 37.479H111.583L115.384 46.719L119.206 37.479H120.508ZM126.693 48.147C125.727 48.147 124.873 47.923 124.131 47.475C123.403 47.027 122.836 46.39 122.43 45.564C122.038 44.738 121.842 43.779 121.842 42.687C121.842 41.595 122.038 40.636 122.43 39.81C122.836 38.984 123.403 38.347 124.131 37.899C124.873 37.451 125.727 37.227 126.693 37.227C127.645 37.227 128.485 37.451 129.213 37.899C129.941 38.347 130.501 38.984 130.893 39.81C131.299 40.636 131.502 41.595 131.502 42.687C131.502 43.779 131.299 44.738 130.893 45.564C130.501 46.39 129.941 47.027 129.213 47.475C128.485 47.923 127.645 48.147 126.693 48.147ZM126.672 47.013C127.792 47.013 128.653 46.642 129.255 45.9C129.871 45.144 130.179 44.073 130.179 42.687C130.179 41.315 129.871 40.251 129.255 39.495C128.639 38.725 127.785 38.34 126.693 38.34C125.587 38.34 124.726 38.725 124.11 39.495C123.494 40.251 123.186 41.315 123.186 42.687C123.186 44.087 123.487 45.158 124.089 45.9C124.691 46.642 125.552 47.013 126.672 47.013ZM142.769 37.479V48H141.53V46.089C141.194 46.761 140.718 47.272 140.102 47.622C139.486 47.972 138.779 48.147 137.981 48.147C136.749 48.147 135.818 47.804 135.188 47.118C134.558 46.432 134.243 45.417 134.243 44.073V37.479H135.503V43.989C135.503 45.025 135.713 45.788 136.133 46.278C136.553 46.768 137.204 47.013 138.086 47.013C139.122 47.013 139.948 46.691 140.564 46.047C141.18 45.389 141.488 44.521 141.488 43.443V37.479H142.769ZM153.399 38.508V44.766C153.399 45.606 153.56 46.187 153.882 46.509C154.204 46.831 154.68 46.992 155.31 46.992C155.702 46.992 156.08 46.929 156.444 46.803V47.958C155.996 48.07 155.541 48.126 155.079 48.126C154.155 48.126 153.427 47.867 152.895 47.349C152.377 46.831 152.118 46.054 152.118 45.018V38.508H150.039V37.479H152.118V34.686L153.399 34.203V37.479H156.507V38.508H153.399ZM162.868 48.147C161.902 48.147 161.048 47.923 160.306 47.475C159.578 47.027 159.011 46.39 158.605 45.564C158.213 44.738 158.017 43.779 158.017 42.687C158.017 41.595 158.213 40.636 158.605 39.81C159.011 38.984 159.578 38.347 160.306 37.899C161.048 37.451 161.902 37.227 162.868 37.227C163.82 37.227 164.66 37.451 165.388 37.899C166.116 38.347 166.676 38.984 167.068 39.81C167.474 40.636 167.677 41.595 167.677 42.687C167.677 43.779 167.474 44.738 167.068 45.564C166.676 46.39 166.116 47.027 165.388 47.475C164.66 47.923 163.82 48.147 162.868 48.147ZM162.847 47.013C163.967 47.013 164.828 46.642 165.43 45.9C166.046 45.144 166.354 44.073 166.354 42.687C166.354 41.315 166.046 40.251 165.43 39.495C164.814 38.725 163.96 38.34 162.868 38.34C161.762 38.34 160.901 38.725 160.285 39.495C159.669 40.251 159.361 41.315 159.361 42.687C159.361 44.087 159.662 45.158 160.264 45.9C160.866 46.642 161.727 47.013 162.847 47.013ZM179.467 33.615C178.865 33.615 178.403 33.776 178.081 34.098C177.759 34.42 177.598 34.994 177.598 35.82V37.479H180.307V38.508H177.598V48H176.317V38.508H174.259V37.479H176.317V35.589C176.317 34.539 176.576 33.755 177.094 33.237C177.612 32.719 178.326 32.46 179.236 32.46C179.656 32.46 180.09 32.516 180.538 32.628V33.783C180.16 33.671 179.803 33.615 179.467 33.615ZM186.719 48.147C185.753 48.147 184.899 47.923 184.157 47.475C183.429 47.027 182.862 46.39 182.456 45.564C182.064 44.738 181.868 43.779 181.868 42.687C181.868 41.595 182.064 40.636 182.456 39.81C182.862 38.984 183.429 38.347 184.157 37.899C184.899 37.451 185.753 37.227 186.719 37.227C187.671 37.227 188.511 37.451 189.239 37.899C189.967 38.347 190.527 38.984 190.919 39.81C191.325 40.636 191.528 41.595 191.528 42.687C191.528 43.779 191.325 44.738 190.919 45.564C190.527 46.39 189.967 47.027 189.239 47.475C188.511 47.923 187.671 48.147 186.719 48.147ZM186.698 47.013C187.818 47.013 188.679 46.642 189.281 45.9C189.897 45.144 190.205 44.073 190.205 42.687C190.205 41.315 189.897 40.251 189.281 39.495C188.665 38.725 187.811 38.34 186.719 38.34C185.613 38.34 184.752 38.725 184.136 39.495C183.52 40.251 183.212 41.315 183.212 42.687C183.212 44.087 183.513 45.158 184.115 45.9C184.717 46.642 185.578 47.013 186.698 47.013ZM198.595 48.147C197.601 48.147 196.733 47.923 195.991 47.475C195.249 47.027 194.675 46.397 194.269 45.585C193.863 44.759 193.66 43.807 193.66 42.729C193.66 41.637 193.863 40.678 194.269 39.852C194.675 39.012 195.256 38.368 196.012 37.92C196.768 37.458 197.643 37.227 198.637 37.227C199.351 37.227 200.03 37.353 200.674 37.605C201.332 37.843 201.871 38.179 202.291 38.613L201.787 39.621C201.241 39.173 200.716 38.851 200.212 38.655C199.722 38.445 199.211 38.34 198.679 38.34C197.545 38.34 196.649 38.732 195.991 39.516C195.333 40.286 195.004 41.357 195.004 42.729C195.004 44.073 195.326 45.123 195.97 45.879C196.628 46.635 197.531 47.013 198.679 47.013C199.211 47.013 199.722 46.915 200.212 46.719C200.716 46.509 201.241 46.187 201.787 45.753L202.291 46.74C201.843 47.174 201.283 47.517 200.611 47.769C199.953 48.021 199.281 48.147 198.595 48.147ZM213.09 37.479V48H211.851V46.089C211.515 46.761 211.039 47.272 210.423 47.622C209.807 47.972 209.1 48.147 208.302 48.147C207.07 48.147 206.139 47.804 205.509 47.118C204.879 46.432 204.564 45.417 204.564 44.073V37.479H205.824V43.989C205.824 45.025 206.034 45.788 206.454 46.278C206.874 46.768 207.525 47.013 208.407 47.013C209.443 47.013 210.269 46.691 210.885 46.047C211.501 45.389 211.809 44.521 211.809 43.443V37.479H213.09ZM220.006 48.147C218.298 48.147 216.947 47.678 215.953 46.74L216.415 45.753C216.975 46.215 217.535 46.544 218.095 46.74C218.669 46.936 219.327 47.034 220.069 47.034C220.937 47.034 221.595 46.887 222.043 46.593C222.505 46.285 222.736 45.844 222.736 45.27C222.736 44.794 222.582 44.423 222.274 44.157C221.98 43.877 221.49 43.653 220.804 43.485L219.019 43.086C218.179 42.89 217.514 42.54 217.024 42.036C216.548 41.532 216.31 40.944 216.31 40.272C216.31 39.348 216.66 38.613 217.36 38.067C218.074 37.507 219.019 37.227 220.195 37.227C220.937 37.227 221.623 37.346 222.253 37.584C222.897 37.822 223.429 38.165 223.849 38.613L223.366 39.6C222.4 38.76 221.343 38.34 220.195 38.34C219.383 38.34 218.753 38.501 218.305 38.823C217.857 39.145 217.633 39.593 217.633 40.167C217.633 40.643 217.773 41.028 218.053 41.322C218.347 41.616 218.795 41.833 219.397 41.973L221.203 42.414C223.093 42.834 224.038 43.765 224.038 45.207C224.038 46.089 223.674 46.803 222.946 47.349C222.218 47.881 221.238 48.147 220.006 48.147ZM236.491 48.147C235.525 48.147 234.671 47.923 233.929 47.475C233.201 47.027 232.634 46.39 232.228 45.564C231.836 44.738 231.64 43.779 231.64 42.687C231.64 41.595 231.836 40.636 232.228 39.81C232.634 38.984 233.201 38.347 233.929 37.899C234.671 37.451 235.525 37.227 236.491 37.227C237.443 37.227 238.283 37.451 239.011 37.899C239.739 38.347 240.299 38.984 240.691 39.81C241.097 40.636 241.3 41.595 241.3 42.687C241.3 43.779 241.097 44.738 240.691 45.564C240.299 46.39 239.739 47.027 239.011 47.475C238.283 47.923 237.443 48.147 236.491 48.147ZM236.47 47.013C237.59 47.013 238.451 46.642 239.053 45.9C239.669 45.144 239.977 44.073 239.977 42.687C239.977 41.315 239.669 40.251 239.053 39.495C238.437 38.725 237.583 38.34 236.491 38.34C235.385 38.34 234.524 38.725 233.908 39.495C233.292 40.251 232.984 41.315 232.984 42.687C232.984 44.087 233.285 45.158 233.887 45.9C234.489 46.642 235.35 47.013 236.47 47.013ZM248.997 37.227C251.531 37.227 252.798 38.585 252.798 41.301V48H251.517V41.385C251.517 40.335 251.3 39.565 250.866 39.075C250.446 38.585 249.781 38.34 248.871 38.34C247.821 38.34 246.974 38.662 246.33 39.306C245.686 39.95 245.364 40.818 245.364 41.91V48H244.104V40.398C244.104 39.306 244.048 38.333 243.936 37.479H245.154L245.322 39.411C245.644 38.697 246.127 38.158 246.771 37.794C247.415 37.416 248.157 37.227 248.997 37.227ZM270.606 37.479V48.042C270.606 49.568 270.228 50.723 269.472 51.507C268.716 52.291 267.603 52.683 266.133 52.683C264.565 52.683 263.2 52.305 262.038 51.549L262.29 50.436C262.976 50.842 263.606 51.129 264.18 51.297C264.754 51.465 265.412 51.549 266.154 51.549C267.204 51.549 267.995 51.262 268.527 50.688C269.073 50.114 269.346 49.274 269.346 48.168V45.459C269.024 46.173 268.548 46.726 267.918 47.118C267.288 47.496 266.532 47.685 265.65 47.685C264.726 47.685 263.907 47.468 263.193 47.034C262.479 46.586 261.919 45.97 261.513 45.186C261.121 44.388 260.925 43.478 260.925 42.456C260.925 41.42 261.121 40.51 261.513 39.726C261.919 38.928 262.479 38.312 263.193 37.878C263.907 37.444 264.726 37.227 265.65 37.227C266.532 37.227 267.281 37.409 267.897 37.773C268.527 38.137 269.003 38.669 269.325 39.369V37.479H270.606ZM265.818 46.53C266.91 46.53 267.764 46.166 268.38 45.438C269.01 44.71 269.325 43.716 269.325 42.456C269.325 41.182 269.01 40.181 268.38 39.453C267.764 38.711 266.91 38.34 265.818 38.34C264.712 38.34 263.844 38.711 263.214 39.453C262.584 40.181 262.269 41.182 262.269 42.456C262.269 43.73 262.584 44.731 263.214 45.459C263.844 46.173 264.712 46.53 265.818 46.53ZM278.623 37.227C278.973 37.227 279.281 37.255 279.547 37.311L279.484 38.466C279.218 38.41 278.896 38.382 278.518 38.382C277.454 38.382 276.656 38.725 276.124 39.411C275.606 40.083 275.347 40.888 275.347 41.826V48H274.087V40.398C274.087 39.306 274.031 38.333 273.919 37.479H275.137L275.305 39.432C275.571 38.718 275.998 38.172 276.586 37.794C277.188 37.416 277.867 37.227 278.623 37.227ZM285.382 48.147C284.416 48.147 283.562 47.923 282.82 47.475C282.092 47.027 281.525 46.39 281.119 45.564C280.727 44.738 280.531 43.779 280.531 42.687C280.531 41.595 280.727 40.636 281.119 39.81C281.525 38.984 282.092 38.347 282.82 37.899C283.562 37.451 284.416 37.227 285.382 37.227C286.334 37.227 287.174 37.451 287.902 37.899C288.63 38.347 289.19 38.984 289.582 39.81C289.988 40.636 290.191 41.595 290.191 42.687C290.191 43.779 289.988 44.738 289.582 45.564C289.19 46.39 288.63 47.027 287.902 47.475C287.174 47.923 286.334 48.147 285.382 48.147ZM285.361 47.013C286.481 47.013 287.342 46.642 287.944 45.9C288.56 45.144 288.868 44.073 288.868 42.687C288.868 41.315 288.56 40.251 287.944 39.495C287.328 38.725 286.474 38.34 285.382 38.34C284.276 38.34 283.415 38.725 282.799 39.495C282.183 40.251 281.875 41.315 281.875 42.687C281.875 44.087 282.176 45.158 282.778 45.9C283.38 46.642 284.241 47.013 285.361 47.013ZM307.256 37.479H308.558L304.736 48H303.413L300.221 39.117L297.008 48H295.664L291.863 37.479H293.228L296.336 46.467L299.612 37.479H300.893L304.064 46.467L307.256 37.479ZM311.021 48V37.479H312.281V48H311.021ZM310.832 33.132H312.533V34.77H310.832V33.132ZM320.693 37.227C323.227 37.227 324.494 38.585 324.494 41.301V48H323.213V41.385C323.213 40.335 322.996 39.565 322.562 39.075C322.142 38.585 321.477 38.34 320.567 38.34C319.517 38.34 318.67 38.662 318.026 39.306C317.382 39.95 317.06 40.818 317.06 41.91V48H315.8V40.398C315.8 39.306 315.744 38.333 315.632 37.479H316.85L317.018 39.411C317.34 38.697 317.823 38.158 318.467 37.794C319.111 37.416 319.853 37.227 320.693 37.227ZM336.949 37.479V48.042C336.949 49.568 336.571 50.723 335.815 51.507C335.059 52.291 333.946 52.683 332.476 52.683C330.908 52.683 329.543 52.305 328.381 51.549L328.633 50.436C329.319 50.842 329.949 51.129 330.523 51.297C331.097 51.465 331.755 51.549 332.497 51.549C333.547 51.549 334.338 51.262 334.87 50.688C335.416 50.114 335.689 49.274 335.689 48.168V45.459C335.367 46.173 334.891 46.726 334.261 47.118C333.631 47.496 332.875 47.685 331.993 47.685C331.069 47.685 330.25 47.468 329.536 47.034C328.822 46.586 328.262 45.97 327.856 45.186C327.464 44.388 327.268 43.478 327.268 42.456C327.268 41.42 327.464 40.51 327.856 39.726C328.262 38.928 328.822 38.312 329.536 37.878C330.25 37.444 331.069 37.227 331.993 37.227C332.875 37.227 333.624 37.409 334.24 37.773C334.87 38.137 335.346 38.669 335.668 39.369V37.479H336.949ZM332.161 46.53C333.253 46.53 334.107 46.166 334.723 45.438C335.353 44.71 335.668 43.716 335.668 42.456C335.668 41.182 335.353 40.181 334.723 39.453C334.107 38.711 333.253 38.34 332.161 38.34C331.055 38.34 330.187 38.711 329.557 39.453C328.927 40.181 328.612 41.182 328.612 42.456C328.612 43.73 328.927 44.731 329.557 45.459C330.187 46.173 331.055 46.53 332.161 46.53ZM354.707 37.479L349.751 49.092C349.261 50.24 348.645 51.08 347.903 51.612C347.175 52.158 346.258 52.543 345.152 52.767L344.9 51.759C345.908 51.521 346.664 51.213 347.168 50.835C347.686 50.457 348.12 49.862 348.47 49.05L348.911 48.021L344.417 37.479H345.782L349.583 46.719L353.405 37.479H354.707ZM360.892 48.147C359.926 48.147 359.072 47.923 358.33 47.475C357.602 47.027 357.035 46.39 356.629 45.564C356.237 44.738 356.041 43.779 356.041 42.687C356.041 41.595 356.237 40.636 356.629 39.81C357.035 38.984 357.602 38.347 358.33 37.899C359.072 37.451 359.926 37.227 360.892 37.227C361.844 37.227 362.684 37.451 363.412 37.899C364.14 38.347 364.7 38.984 365.092 39.81C365.498 40.636 365.701 41.595 365.701 42.687C365.701 43.779 365.498 44.738 365.092 45.564C364.7 46.39 364.14 47.027 363.412 47.475C362.684 47.923 361.844 48.147 360.892 48.147ZM360.871 47.013C361.991 47.013 362.852 46.642 363.454 45.9C364.07 45.144 364.378 44.073 364.378 42.687C364.378 41.315 364.07 40.251 363.454 39.495C362.838 38.725 361.984 38.34 360.892 38.34C359.786 38.34 358.925 38.725 358.309 39.495C357.693 40.251 357.385 41.315 357.385 42.687C357.385 44.087 357.686 45.158 358.288 45.9C358.89 46.642 359.751 47.013 360.871 47.013ZM376.968 37.479V48H375.729V46.089C375.393 46.761 374.917 47.272 374.301 47.622C373.685 47.972 372.978 48.147 372.18 48.147C370.948 48.147 370.017 47.804 369.387 47.118C368.757 46.432 368.442 45.417 368.442 44.073V37.479H369.702V43.989C369.702 45.025 369.912 45.788 370.332 46.278C370.752 46.768 371.403 47.013 372.285 47.013C373.321 47.013 374.147 46.691 374.763 46.047C375.379 45.389 375.687 44.521 375.687 43.443V37.479H376.968ZM384.997 37.227C385.347 37.227 385.655 37.255 385.921 37.311L385.858 38.466C385.592 38.41 385.27 38.382 384.892 38.382C383.828 38.382 383.03 38.725 382.498 39.411C381.98 40.083 381.721 40.888 381.721 41.826V48H380.461V40.398C380.461 39.306 380.405 38.333 380.293 37.479H381.511L381.679 39.432C381.945 38.718 382.372 38.172 382.96 37.794C383.562 37.416 384.241 37.227 384.997 37.227ZM398.049 37.227C398.973 37.227 399.792 37.451 400.506 37.899C401.22 38.347 401.766 38.977 402.144 39.789C402.536 40.601 402.732 41.553 402.732 42.645C402.732 43.737 402.536 44.703 402.144 45.543C401.752 46.369 401.199 47.013 400.485 47.475C399.785 47.923 398.973 48.147 398.049 48.147C397.181 48.147 396.432 47.958 395.802 47.58C395.186 47.202 394.724 46.656 394.416 45.942V48H393.135V32.544H394.395V39.453C394.703 38.725 395.172 38.172 395.802 37.794C396.432 37.416 397.181 37.227 398.049 37.227ZM397.902 47.013C398.994 47.013 399.848 46.628 400.464 45.858C401.08 45.088 401.388 44.017 401.388 42.645C401.388 41.287 401.08 40.23 400.464 39.474C399.848 38.718 398.987 38.34 397.881 38.34C396.775 38.34 395.921 38.718 395.319 39.474C394.717 40.23 394.416 41.301 394.416 42.687C394.416 44.073 394.717 45.144 395.319 45.9C395.921 46.642 396.782 47.013 397.902 47.013ZM414.005 37.479V48H412.766V46.089C412.43 46.761 411.954 47.272 411.338 47.622C410.722 47.972 410.015 48.147 409.217 48.147C407.985 48.147 407.054 47.804 406.424 47.118C405.794 46.432 405.479 45.417 405.479 44.073V37.479H406.739V43.989C406.739 45.025 406.949 45.788 407.369 46.278C407.789 46.768 408.44 47.013 409.322 47.013C410.358 47.013 411.184 46.691 411.8 46.047C412.416 45.389 412.724 44.521 412.724 43.443V37.479H414.005ZM420.921 48.147C419.213 48.147 417.862 47.678 416.868 46.74L417.33 45.753C417.89 46.215 418.45 46.544 419.01 46.74C419.584 46.936 420.242 47.034 420.984 47.034C421.852 47.034 422.51 46.887 422.958 46.593C423.42 46.285 423.651 45.844 423.651 45.27C423.651 44.794 423.497 44.423 423.189 44.157C422.895 43.877 422.405 43.653 421.719 43.485L419.934 43.086C419.094 42.89 418.429 42.54 417.939 42.036C417.463 41.532 417.225 40.944 417.225 40.272C417.225 39.348 417.575 38.613 418.275 38.067C418.989 37.507 419.934 37.227 421.11 37.227C421.852 37.227 422.538 37.346 423.168 37.584C423.812 37.822 424.344 38.165 424.764 38.613L424.281 39.6C423.315 38.76 422.258 38.34 421.11 38.34C420.298 38.34 419.668 38.501 419.22 38.823C418.772 39.145 418.548 39.593 418.548 40.167C418.548 40.643 418.688 41.028 418.968 41.322C419.262 41.616 419.71 41.833 420.312 41.973L422.118 42.414C424.008 42.834 424.953 43.765 424.953 45.207C424.953 46.089 424.589 46.803 423.861 47.349C423.133 47.881 422.153 48.147 420.921 48.147ZM427.875 48V37.479H429.135V48H427.875ZM427.686 33.132H429.387V34.77H427.686V33.132ZM437.546 37.227C440.08 37.227 441.347 38.585 441.347 41.301V48H440.066V41.385C440.066 40.335 439.849 39.565 439.415 39.075C438.995 38.585 438.33 38.34 437.42 38.34C436.37 38.34 435.523 38.662 434.879 39.306C434.235 39.95 433.913 40.818 433.913 41.91V48H432.653V40.398C432.653 39.306 432.597 38.333 432.485 37.479H433.703L433.871 39.411C434.193 38.697 434.676 38.158 435.32 37.794C435.964 37.416 436.706 37.227 437.546 37.227ZM445.466 42.582V42.645C445.466 44.059 445.788 45.144 446.432 45.9C447.09 46.642 448.042 47.013 449.288 47.013C450.548 47.013 451.703 46.579 452.753 45.711L453.257 46.719C452.795 47.153 452.207 47.503 451.493 47.769C450.779 48.021 450.044 48.147 449.288 48.147C447.692 48.147 446.432 47.664 445.508 46.698C444.584 45.732 444.122 44.402 444.122 42.708C444.122 41.63 444.325 40.678 444.731 39.852C445.151 39.012 445.732 38.368 446.474 37.92C447.216 37.458 448.07 37.227 449.036 37.227C450.422 37.227 451.5 37.675 452.27 38.571C453.054 39.467 453.446 40.713 453.446 42.309V42.582H445.466ZM449.036 38.277C448.07 38.277 447.286 38.571 446.684 39.159C446.082 39.733 445.704 40.545 445.55 41.595H452.228C452.144 40.517 451.829 39.698 451.283 39.138C450.737 38.564 449.988 38.277 449.036 38.277ZM459.619 48.147C457.911 48.147 456.56 47.678 455.566 46.74L456.028 45.753C456.588 46.215 457.148 46.544 457.708 46.74C458.282 46.936 458.94 47.034 459.682 47.034C460.55 47.034 461.208 46.887 461.656 46.593C462.118 46.285 462.349 45.844 462.349 45.27C462.349 44.794 462.195 44.423 461.887 44.157C461.593 43.877 461.103 43.653 460.417 43.485L458.632 43.086C457.792 42.89 457.127 42.54 456.637 42.036C456.161 41.532 455.923 40.944 455.923 40.272C455.923 39.348 456.273 38.613 456.973 38.067C457.687 37.507 458.632 37.227 459.808 37.227C460.55 37.227 461.236 37.346 461.866 37.584C462.51 37.822 463.042 38.165 463.462 38.613L462.979 39.6C462.013 38.76 460.956 38.34 459.808 38.34C458.996 38.34 458.366 38.501 457.918 38.823C457.47 39.145 457.246 39.593 457.246 40.167C457.246 40.643 457.386 41.028 457.666 41.322C457.96 41.616 458.408 41.833 459.01 41.973L460.816 42.414C462.706 42.834 463.651 43.765 463.651 45.207C463.651 46.089 463.287 46.803 462.559 47.349C461.831 47.881 460.851 48.147 459.619 48.147ZM469.996 48.147C468.288 48.147 466.937 47.678 465.943 46.74L466.405 45.753C466.965 46.215 467.525 46.544 468.085 46.74C468.659 46.936 469.317 47.034 470.059 47.034C470.927 47.034 471.585 46.887 472.033 46.593C472.495 46.285 472.726 45.844 472.726 45.27C472.726 44.794 472.572 44.423 472.264 44.157C471.97 43.877 471.48 43.653 470.794 43.485L469.009 43.086C468.169 42.89 467.504 42.54 467.014 42.036C466.538 41.532 466.3 40.944 466.3 40.272C466.3 39.348 466.65 38.613 467.35 38.067C468.064 37.507 469.009 37.227 470.185 37.227C470.927 37.227 471.613 37.346 472.243 37.584C472.887 37.822 473.419 38.165 473.839 38.613L473.356 39.6C472.39 38.76 471.333 38.34 470.185 38.34C469.373 38.34 468.743 38.501 468.295 38.823C467.847 39.145 467.623 39.593 467.623 40.167C467.623 40.643 467.763 41.028 468.043 41.322C468.337 41.616 468.785 41.833 469.387 41.973L471.193 42.414C473.083 42.834 474.028 43.765 474.028 45.207C474.028 46.089 473.664 46.803 472.936 47.349C472.208 47.881 471.228 48.147 469.996 48.147ZM16.107 69.479H17.409L13.587 80H12.264L9.072 71.117L5.859 80H4.515L0.714 69.479H2.079L5.187 78.467L8.463 69.479H9.744L12.915 78.467L16.107 69.479ZM24.7649 69.227C27.2989 69.227 28.5659 70.585 28.5659 73.301V80H27.2849V73.385C27.2849 72.335 27.0679 71.565 26.6339 71.075C26.2139 70.585 25.5489 70.34 24.6389 70.34C23.5889 70.34 22.7419 70.662 22.0979 71.306C21.4539 71.95 21.1319 72.818 21.1319 73.91V80H19.8719V64.544H21.1319V71.306C21.4679 70.62 21.9509 70.102 22.5809 69.752C23.2109 69.402 23.9389 69.227 24.7649 69.227ZM32.0125 80V69.479H33.2725V80H32.0125ZM31.8235 65.132H33.5245V66.77H31.8235V65.132ZM36.7909 80V64.544H38.0509V80H36.7909ZM42.2412 74.582V74.645C42.2412 76.059 42.5632 77.144 43.2072 77.9C43.8652 78.642 44.8172 79.013 46.0632 79.013C47.3232 79.013 48.4782 78.579 49.5282 77.711L50.0322 78.719C49.5702 79.153 48.9822 79.503 48.2682 79.769C47.5542 80.021 46.8192 80.147 46.0632 80.147C44.4672 80.147 43.2072 79.664 42.2832 78.698C41.3592 77.732 40.8972 76.402 40.8972 74.708C40.8972 73.63 41.1002 72.678 41.5062 71.852C41.9262 71.012 42.5072 70.368 43.2492 69.92C43.9912 69.458 44.8452 69.227 45.8112 69.227C47.1972 69.227 48.2752 69.675 49.0452 70.571C49.8292 71.467 50.2212 72.713 50.2212 74.309V74.582H42.2412ZM45.8112 70.277C44.8452 70.277 44.0612 70.571 43.4592 71.159C42.8572 71.733 42.4792 72.545 42.3252 73.595H49.0032C48.9192 72.517 48.6042 71.698 48.0582 71.138C47.5122 70.564 46.7632 70.277 45.8112 70.277ZM72.6881 69.479H73.9901L70.1681 80H68.8451L65.6531 71.117L62.4401 80H61.0961L57.2951 69.479H58.6601L61.7681 78.467L65.0441 69.479H66.3251L69.4961 78.467L72.6881 69.479ZM77.0224 74.582V74.645C77.0224 76.059 77.3444 77.144 77.9884 77.9C78.6464 78.642 79.5984 79.013 80.8444 79.013C82.1044 79.013 83.2594 78.579 84.3094 77.711L84.8134 78.719C84.3514 79.153 83.7634 79.503 83.0494 79.769C82.3354 80.021 81.6004 80.147 80.8444 80.147C79.2484 80.147 77.9884 79.664 77.0644 78.698C76.1404 77.732 75.6784 76.402 75.6784 74.708C75.6784 73.63 75.8814 72.678 76.2874 71.852C76.7074 71.012 77.2884 70.368 78.0304 69.92C78.7724 69.458 79.6264 69.227 80.5924 69.227C81.9784 69.227 83.0564 69.675 83.8264 70.571C84.6104 71.467 85.0024 72.713 85.0024 74.309V74.582H77.0224ZM80.5924 70.277C79.6264 70.277 78.8424 70.571 78.2404 71.159C77.6384 71.733 77.2604 72.545 77.1064 73.595H83.7844C83.7004 72.517 83.3854 71.698 82.8394 71.138C82.2934 70.564 81.5444 70.277 80.5924 70.277ZM94.8903 70.508V76.766C94.8903 77.606 95.0513 78.187 95.3733 78.509C95.6953 78.831 96.1713 78.992 96.8013 78.992C97.1933 78.992 97.5713 78.929 97.9353 78.803V79.958C97.4873 80.07 97.0323 80.126 96.5703 80.126C95.6463 80.126 94.9183 79.867 94.3863 79.349C93.8683 78.831 93.6093 78.054 93.6093 77.018V70.508H91.5303V69.479H93.6093V66.686L94.8903 66.203V69.479H97.9983V70.508H94.8903ZM109.106 69.479V80H107.825V77.984C107.517 78.684 107.048 79.223 106.418 79.601C105.802 79.965 105.06 80.147 104.192 80.147C103.254 80.147 102.428 79.93 101.714 79.496C101.014 79.048 100.468 78.418 100.076 77.606C99.6975 76.78 99.5085 75.821 99.5085 74.729C99.5085 73.637 99.7045 72.678 100.097 71.852C100.489 71.012 101.035 70.368 101.735 69.92C102.449 69.458 103.268 69.227 104.192 69.227C105.046 69.227 105.781 69.409 106.397 69.773C107.027 70.137 107.503 70.669 107.825 71.369V69.479H109.106ZM104.381 79.013C105.473 79.013 106.32 78.635 106.922 77.879C107.524 77.123 107.825 76.059 107.825 74.687C107.825 73.301 107.524 72.23 106.922 71.474C106.32 70.718 105.466 70.34 104.36 70.34C103.254 70.34 102.393 70.732 101.777 71.516C101.161 72.286 100.853 73.357 100.853 74.729C100.853 76.087 101.161 77.144 101.777 77.9C102.393 78.642 103.261 79.013 104.381 79.013ZM121.387 80H119.644L113.848 74.876V80H112.588V64.544H113.848V74.372L119.14 69.479H120.799L115.297 74.54L121.387 80ZM123.514 74.582V74.645C123.514 76.059 123.836 77.144 124.48 77.9C125.138 78.642 126.09 79.013 127.336 79.013C128.596 79.013 129.751 78.579 130.801 77.711L131.305 78.719C130.843 79.153 130.255 79.503 129.541 79.769C128.827 80.021 128.092 80.147 127.336 80.147C125.74 80.147 124.48 79.664 123.556 78.698C122.632 77.732 122.17 76.402 122.17 74.708C122.17 73.63 122.373 72.678 122.779 71.852C123.199 71.012 123.78 70.368 124.522 69.92C125.264 69.458 126.118 69.227 127.084 69.227C128.47 69.227 129.548 69.675 130.318 70.571C131.102 71.467 131.494 72.713 131.494 74.309V74.582H123.514ZM127.084 70.277C126.118 70.277 125.334 70.571 124.732 71.159C124.13 71.733 123.752 72.545 123.598 73.595H130.276C130.192 72.517 129.877 71.698 129.331 71.138C128.785 70.564 128.036 70.277 127.084 70.277ZM143.86 80.147C142.866 80.147 141.998 79.923 141.256 79.475C140.514 79.027 139.94 78.397 139.534 77.585C139.128 76.759 138.925 75.807 138.925 74.729C138.925 73.637 139.128 72.678 139.534 71.852C139.94 71.012 140.521 70.368 141.277 69.92C142.033 69.458 142.908 69.227 143.902 69.227C144.616 69.227 145.295 69.353 145.939 69.605C146.597 69.843 147.136 70.179 147.556 70.613L147.052 71.621C146.506 71.173 145.981 70.851 145.477 70.655C144.987 70.445 144.476 70.34 143.944 70.34C142.81 70.34 141.914 70.732 141.256 71.516C140.598 72.286 140.269 73.357 140.269 74.729C140.269 76.073 140.591 77.123 141.235 77.879C141.893 78.635 142.796 79.013 143.944 79.013C144.476 79.013 144.987 78.915 145.477 78.719C145.981 78.509 146.506 78.187 147.052 77.753L147.556 78.74C147.108 79.174 146.548 79.517 145.876 79.769C145.218 80.021 144.546 80.147 143.86 80.147ZM158.816 69.479V80H157.535V77.984C157.227 78.684 156.758 79.223 156.128 79.601C155.512 79.965 154.77 80.147 153.902 80.147C152.964 80.147 152.138 79.93 151.424 79.496C150.724 79.048 150.178 78.418 149.786 77.606C149.408 76.78 149.219 75.821 149.219 74.729C149.219 73.637 149.415 72.678 149.807 71.852C150.199 71.012 150.745 70.368 151.445 69.92C152.159 69.458 152.978 69.227 153.902 69.227C154.756 69.227 155.491 69.409 156.107 69.773C156.737 70.137 157.213 70.669 157.535 71.369V69.479H158.816ZM154.091 79.013C155.183 79.013 156.03 78.635 156.632 77.879C157.234 77.123 157.535 76.059 157.535 74.687C157.535 73.301 157.234 72.23 156.632 71.474C156.03 70.718 155.176 70.34 154.07 70.34C152.964 70.34 152.103 70.732 151.487 71.516C150.871 72.286 150.563 73.357 150.563 74.729C150.563 76.087 150.871 77.144 151.487 77.9C152.103 78.642 152.971 79.013 154.091 79.013ZM166.835 69.227C167.185 69.227 167.493 69.255 167.759 69.311L167.696 70.466C167.43 70.41 167.108 70.382 166.73 70.382C165.666 70.382 164.868 70.725 164.336 71.411C163.818 72.083 163.559 72.888 163.559 73.826V80H162.299V72.398C162.299 71.306 162.243 70.333 162.131 69.479H163.349L163.517 71.432C163.783 70.718 164.21 70.172 164.798 69.794C165.4 69.416 166.079 69.227 166.835 69.227ZM170.087 74.582V74.645C170.087 76.059 170.409 77.144 171.053 77.9C171.711 78.642 172.663 79.013 173.909 79.013C175.169 79.013 176.324 78.579 177.374 77.711L177.878 78.719C177.416 79.153 176.828 79.503 176.114 79.769C175.4 80.021 174.665 80.147 173.909 80.147C172.313 80.147 171.053 79.664 170.129 78.698C169.205 77.732 168.743 76.402 168.743 74.708C168.743 73.63 168.946 72.678 169.352 71.852C169.772 71.012 170.353 70.368 171.095 69.92C171.837 69.458 172.691 69.227 173.657 69.227C175.043 69.227 176.121 69.675 176.891 70.571C177.675 71.467 178.067 72.713 178.067 74.309V74.582H170.087ZM173.657 70.277C172.691 70.277 171.907 70.571 171.305 71.159C170.703 71.733 170.325 72.545 170.171 73.595H176.849C176.765 72.517 176.45 71.698 175.904 71.138C175.358 70.564 174.609 70.277 173.657 70.277ZM190.349 80.147C189.383 80.147 188.529 79.923 187.787 79.475C187.059 79.027 186.492 78.39 186.086 77.564C185.694 76.738 185.498 75.779 185.498 74.687C185.498 73.595 185.694 72.636 186.086 71.81C186.492 70.984 187.059 70.347 187.787 69.899C188.529 69.451 189.383 69.227 190.349 69.227C191.301 69.227 192.141 69.451 192.869 69.899C193.597 70.347 194.157 70.984 194.549 71.81C194.955 72.636 195.158 73.595 195.158 74.687C195.158 75.779 194.955 76.738 194.549 77.564C194.157 78.39 193.597 79.027 192.869 79.475C192.141 79.923 191.301 80.147 190.349 80.147ZM190.328 79.013C191.448 79.013 192.309 78.642 192.911 77.9C193.527 77.144 193.835 76.073 193.835 74.687C193.835 73.315 193.527 72.251 192.911 71.495C192.295 70.725 191.441 70.34 190.349 70.34C189.243 70.34 188.382 70.725 187.766 71.495C187.15 72.251 186.842 73.315 186.842 74.687C186.842 76.087 187.143 77.158 187.745 77.9C188.347 78.642 189.208 79.013 190.328 79.013ZM201.595 65.615C200.993 65.615 200.531 65.776 200.209 66.098C199.887 66.42 199.726 66.994 199.726 67.82V69.479H202.435V70.508H199.726V80H198.445V70.508H196.387V69.479H198.445V67.589C198.445 66.539 198.704 65.755 199.222 65.237C199.74 64.719 200.454 64.46 201.364 64.46C201.784 64.46 202.218 64.516 202.666 64.628V65.783C202.288 65.671 201.931 65.615 201.595 65.615ZM215.037 69.227C215.961 69.227 216.78 69.451 217.494 69.899C218.208 70.347 218.754 70.977 219.132 71.789C219.524 72.601 219.72 73.553 219.72 74.645C219.72 75.737 219.524 76.703 219.132 77.543C218.74 78.369 218.187 79.013 217.473 79.475C216.773 79.923 215.961 80.147 215.037 80.147C214.169 80.147 213.42 79.958 212.79 79.58C212.174 79.202 211.712 78.656 211.404 77.942V80H210.123V64.544H211.383V71.453C211.691 70.725 212.16 70.172 212.79 69.794C213.42 69.416 214.169 69.227 215.037 69.227ZM214.89 79.013C215.982 79.013 216.836 78.628 217.452 77.858C218.068 77.088 218.376 76.017 218.376 74.645C218.376 73.287 218.068 72.23 217.452 71.474C216.836 70.718 215.975 70.34 214.869 70.34C213.763 70.34 212.909 70.718 212.307 71.474C211.705 72.23 211.404 73.301 211.404 74.687C211.404 76.073 211.705 77.144 212.307 77.9C212.909 78.642 213.77 79.013 214.89 79.013ZM230.993 69.479V80H229.754V78.089C229.418 78.761 228.942 79.272 228.326 79.622C227.71 79.972 227.003 80.147 226.205 80.147C224.973 80.147 224.042 79.804 223.412 79.118C222.782 78.432 222.467 77.417 222.467 76.073V69.479H223.727V75.989C223.727 77.025 223.937 77.788 224.357 78.278C224.777 78.768 225.428 79.013 226.31 79.013C227.346 79.013 228.172 78.691 228.788 78.047C229.404 77.389 229.712 76.521 229.712 75.443V69.479H230.993ZM234.486 80V69.479H235.746V80H234.486ZM234.297 65.132H235.998V66.77H234.297V65.132ZM239.264 80V64.544H240.524V80H239.264ZM252.968 64.544V80H251.687V77.984C251.379 78.684 250.91 79.223 250.28 79.601C249.664 79.965 248.922 80.147 248.054 80.147C247.13 80.147 246.311 79.923 245.597 79.475C244.897 79.013 244.351 78.369 243.959 77.543C243.567 76.703 243.371 75.737 243.371 74.645C243.371 73.553 243.56 72.601 243.938 71.789C244.33 70.963 244.876 70.333 245.576 69.899C246.29 69.451 247.116 69.227 248.054 69.227C248.908 69.227 249.643 69.409 250.259 69.773C250.889 70.137 251.365 70.669 251.687 71.369V64.544H252.968ZM248.222 79.013C249.328 79.013 250.182 78.635 250.784 77.879C251.386 77.123 251.687 76.059 251.687 74.687C251.687 73.315 251.386 72.251 250.784 71.495C250.182 70.725 249.335 70.34 248.243 70.34C247.123 70.34 246.255 70.718 245.639 71.474C245.023 72.23 244.715 73.287 244.715 74.645C244.715 76.017 245.023 77.088 245.639 77.858C246.255 78.628 247.116 79.013 248.222 79.013ZM256.45 80V69.479H257.71V80H256.45ZM256.261 65.132H257.962V66.77H256.261V65.132ZM266.121 69.227C268.655 69.227 269.922 70.585 269.922 73.301V80H268.641V73.385C268.641 72.335 268.424 71.565 267.99 71.075C267.57 70.585 266.905 70.34 265.995 70.34C264.945 70.34 264.098 70.662 263.454 71.306C262.81 71.95 262.488 72.818 262.488 73.91V80H261.228V72.398C261.228 71.306 261.172 70.333 261.06 69.479H262.278L262.446 71.411C262.768 70.697 263.251 70.158 263.895 69.794C264.539 69.416 265.281 69.227 266.121 69.227ZM282.378 69.479V80.042C282.378 81.568 282 82.723 281.244 83.507C280.488 84.291 279.375 84.683 277.905 84.683C276.337 84.683 274.972 84.305 273.81 83.549L274.062 82.436C274.748 82.842 275.378 83.129 275.952 83.297C276.526 83.465 277.184 83.549 277.926 83.549C278.976 83.549 279.767 83.262 280.299 82.688C280.845 82.114 281.118 81.274 281.118 80.168V77.459C280.796 78.173 280.32 78.726 279.69 79.118C279.06 79.496 278.304 79.685 277.422 79.685C276.498 79.685 275.679 79.468 274.965 79.034C274.251 78.586 273.691 77.97 273.285 77.186C272.893 76.388 272.697 75.478 272.697 74.456C272.697 73.42 272.893 72.51 273.285 71.726C273.691 70.928 274.251 70.312 274.965 69.878C275.679 69.444 276.498 69.227 277.422 69.227C278.304 69.227 279.053 69.409 279.669 69.773C280.299 70.137 280.775 70.669 281.097 71.369V69.479H282.378ZM277.59 78.53C278.682 78.53 279.536 78.166 280.152 77.438C280.782 76.71 281.097 75.716 281.097 74.456C281.097 73.182 280.782 72.181 280.152 71.453C279.536 70.711 278.682 70.34 277.59 70.34C276.484 70.34 275.616 70.711 274.986 71.453C274.356 72.181 274.041 73.182 274.041 74.456C274.041 75.73 274.356 76.731 274.986 77.459C275.616 78.173 276.484 78.53 277.59 78.53ZM300.136 69.479L295.18 81.092C294.69 82.24 294.074 83.08 293.332 83.612C292.604 84.158 291.687 84.543 290.581 84.767L290.329 83.759C291.337 83.521 292.093 83.213 292.597 82.835C293.115 82.457 293.549 81.862 293.899 81.05L294.34 80.021L289.846 69.479H291.211L295.012 78.719L298.834 69.479H300.136ZM306.32 80.147C305.354 80.147 304.5 79.923 303.758 79.475C303.03 79.027 302.463 78.39 302.057 77.564C301.665 76.738 301.469 75.779 301.469 74.687C301.469 73.595 301.665 72.636 302.057 71.81C302.463 70.984 303.03 70.347 303.758 69.899C304.5 69.451 305.354 69.227 306.32 69.227C307.272 69.227 308.112 69.451 308.84 69.899C309.568 70.347 310.128 70.984 310.52 71.81C310.926 72.636 311.129 73.595 311.129 74.687C311.129 75.779 310.926 76.738 310.52 77.564C310.128 78.39 309.568 79.027 308.84 79.475C308.112 79.923 307.272 80.147 306.32 80.147ZM306.299 79.013C307.419 79.013 308.28 78.642 308.882 77.9C309.498 77.144 309.806 76.073 309.806 74.687C309.806 73.315 309.498 72.251 308.882 71.495C308.266 70.725 307.412 70.34 306.32 70.34C305.214 70.34 304.353 70.725 303.737 71.495C303.121 72.251 302.813 73.315 302.813 74.687C302.813 76.087 303.114 77.158 303.716 77.9C304.318 78.642 305.179 79.013 306.299 79.013ZM322.396 69.479V80H321.157V78.089C320.821 78.761 320.345 79.272 319.729 79.622C319.113 79.972 318.406 80.147 317.608 80.147C316.376 80.147 315.445 79.804 314.815 79.118C314.185 78.432 313.87 77.417 313.87 76.073V69.479H315.13V75.989C315.13 77.025 315.34 77.788 315.76 78.278C316.18 78.768 316.831 79.013 317.713 79.013C318.749 79.013 319.575 78.691 320.191 78.047C320.807 77.389 321.115 76.521 321.115 75.443V69.479H322.396ZM330.425 69.227C330.775 69.227 331.083 69.255 331.349 69.311L331.286 70.466C331.02 70.41 330.698 70.382 330.32 70.382C329.256 70.382 328.458 70.725 327.926 71.411C327.408 72.083 327.149 72.888 327.149 73.826V80H325.889V72.398C325.889 71.306 325.833 70.333 325.721 69.479H326.939L327.107 71.432C327.373 70.718 327.8 70.172 328.388 69.794C328.99 69.416 329.669 69.227 330.425 69.227ZM341.986 80.147C340.278 80.147 338.927 79.678 337.933 78.74L338.395 77.753C338.955 78.215 339.515 78.544 340.075 78.74C340.649 78.936 341.307 79.034 342.049 79.034C342.917 79.034 343.575 78.887 344.023 78.593C344.485 78.285 344.716 77.844 344.716 77.27C344.716 76.794 344.562 76.423 344.254 76.157C343.96 75.877 343.47 75.653 342.784 75.485L340.999 75.086C340.159 74.89 339.494 74.54 339.004 74.036C338.528 73.532 338.29 72.944 338.29 72.272C338.29 71.348 338.64 70.613 339.34 70.067C340.054 69.507 340.999 69.227 342.175 69.227C342.917 69.227 343.603 69.346 344.233 69.584C344.877 69.822 345.409 70.165 345.829 70.613L345.346 71.6C344.38 70.76 343.323 70.34 342.175 70.34C341.363 70.34 340.733 70.501 340.285 70.823C339.837 71.145 339.613 71.593 339.613 72.167C339.613 72.643 339.753 73.028 340.033 73.322C340.327 73.616 340.775 73.833 341.377 73.973L343.183 74.414C345.073 74.834 346.018 75.765 346.018 77.207C346.018 78.089 345.654 78.803 344.926 79.349C344.198 79.881 343.218 80.147 341.986 80.147ZM353.119 80.147C352.153 80.147 351.299 79.923 350.557 79.475C349.829 79.027 349.262 78.39 348.856 77.564C348.464 76.738 348.268 75.779 348.268 74.687C348.268 73.595 348.464 72.636 348.856 71.81C349.262 70.984 349.829 70.347 350.557 69.899C351.299 69.451 352.153 69.227 353.119 69.227C354.071 69.227 354.911 69.451 355.639 69.899C356.367 70.347 356.927 70.984 357.319 71.81C357.725 72.636 357.928 73.595 357.928 74.687C357.928 75.779 357.725 76.738 357.319 77.564C356.927 78.39 356.367 79.027 355.639 79.475C354.911 79.923 354.071 80.147 353.119 80.147ZM353.098 79.013C354.218 79.013 355.079 78.642 355.681 77.9C356.297 77.144 356.605 76.073 356.605 74.687C356.605 73.315 356.297 72.251 355.681 71.495C355.065 70.725 354.211 70.34 353.119 70.34C352.013 70.34 351.152 70.725 350.536 71.495C349.92 72.251 349.612 73.315 349.612 74.687C349.612 76.087 349.913 77.158 350.515 77.9C351.117 78.642 351.978 79.013 353.098 79.013ZM364.365 65.615C363.763 65.615 363.301 65.776 362.979 66.098C362.657 66.42 362.496 66.994 362.496 67.82V69.479H365.205V70.508H362.496V80H361.215V70.508H359.157V69.479H361.215V67.589C361.215 66.539 361.474 65.755 361.992 65.237C362.51 64.719 363.224 64.46 364.134 64.46C364.554 64.46 364.988 64.516 365.436 64.628V65.783C365.058 65.671 364.701 65.615 364.365 65.615ZM368.875 70.508V76.766C368.875 77.606 369.036 78.187 369.358 78.509C369.68 78.831 370.156 78.992 370.786 78.992C371.178 78.992 371.556 78.929 371.92 78.803V79.958C371.472 80.07 371.017 80.126 370.555 80.126C369.631 80.126 368.903 79.867 368.371 79.349C367.853 78.831 367.594 78.054 367.594 77.018V70.508H365.515V69.479H367.594V66.686L368.875 66.203V69.479H371.983V70.508H368.875ZM388.631 69.479H389.933L386.111 80H384.788L381.596 71.117L378.383 80H377.039L373.238 69.479H374.603L377.711 78.467L380.987 69.479H382.268L385.439 78.467L388.631 69.479ZM401.219 69.479V80H399.938V77.984C399.63 78.684 399.161 79.223 398.531 79.601C397.915 79.965 397.173 80.147 396.305 80.147C395.367 80.147 394.541 79.93 393.827 79.496C393.127 79.048 392.581 78.418 392.189 77.606C391.811 76.78 391.622 75.821 391.622 74.729C391.622 73.637 391.818 72.678 392.21 71.852C392.602 71.012 393.148 70.368 393.848 69.92C394.562 69.458 395.381 69.227 396.305 69.227C397.159 69.227 397.894 69.409 398.51 69.773C399.14 70.137 399.616 70.669 399.938 71.369V69.479H401.219ZM396.494 79.013C397.586 79.013 398.433 78.635 399.035 77.879C399.637 77.123 399.938 76.059 399.938 74.687C399.938 73.301 399.637 72.23 399.035 71.474C398.433 70.718 397.579 70.34 396.473 70.34C395.367 70.34 394.506 70.732 393.89 71.516C393.274 72.286 392.966 73.357 392.966 74.729C392.966 76.087 393.274 77.144 393.89 77.9C394.506 78.642 395.374 79.013 396.494 79.013ZM409.237 69.227C409.587 69.227 409.895 69.255 410.161 69.311L410.098 70.466C409.832 70.41 409.51 70.382 409.132 70.382C408.068 70.382 407.27 70.725 406.738 71.411C406.22 72.083 405.961 72.888 405.961 73.826V80H404.701V72.398C404.701 71.306 404.645 70.333 404.533 69.479H405.751L405.919 71.432C406.185 70.718 406.612 70.172 407.2 69.794C407.802 69.416 408.481 69.227 409.237 69.227ZM412.489 74.582V74.645C412.489 76.059 412.811 77.144 413.455 77.9C414.113 78.642 415.065 79.013 416.311 79.013C417.571 79.013 418.726 78.579 419.776 77.711L420.28 78.719C419.818 79.153 419.23 79.503 418.516 79.769C417.802 80.021 417.067 80.147 416.311 80.147C414.715 80.147 413.455 79.664 412.531 78.698C411.607 77.732 411.145 76.402 411.145 74.708C411.145 73.63 411.348 72.678 411.754 71.852C412.174 71.012 412.755 70.368 413.497 69.92C414.239 69.458 415.093 69.227 416.059 69.227C417.445 69.227 418.523 69.675 419.293 70.571C420.077 71.467 420.469 72.713 420.469 74.309V74.582H412.489ZM416.059 70.277C415.093 70.277 414.309 70.571 413.707 71.159C413.105 71.733 412.727 72.545 412.573 73.595H419.251C419.167 72.517 418.852 71.698 418.306 71.138C417.76 70.564 417.011 70.277 416.059 70.277ZM422.926 78.173H424.711V80H422.926V78.173ZM1.932 144V129.048H3.234V142.866H10.962V144H1.932ZM13.7148 138.582V138.645C13.7148 140.059 14.0368 141.144 14.6808 141.9C15.3388 142.642 16.2908 143.013 17.5368 143.013C18.7968 143.013 19.9518 142.579 21.0018 141.711L21.5058 142.719C21.0438 143.153 20.4558 143.503 19.7418 143.769C19.0278 144.021 18.2928 144.147 17.5368 144.147C15.9408 144.147 14.6808 143.664 13.7568 142.698C12.8328 141.732 12.3708 140.402 12.3708 138.708C12.3708 137.63 12.5738 136.678 12.9798 135.852C13.3998 135.012 13.9808 134.368 14.7228 133.92C15.4648 133.458 16.3188 133.227 17.2848 133.227C18.6708 133.227 19.7488 133.675 20.5188 134.571C21.3028 135.467 21.6948 136.713 21.6948 138.309V138.582H13.7148ZM17.2848 134.277C16.3188 134.277 15.5348 134.571 14.9328 135.159C14.3308 135.733 13.9528 136.545 13.7988 137.595H20.4768C20.3928 136.517 20.0778 135.698 19.5318 135.138C18.9858 134.564 18.2368 134.277 17.2848 134.277ZM26.2096 134.508V140.766C26.2096 141.606 26.3706 142.187 26.6926 142.509C27.0146 142.831 27.4906 142.992 28.1206 142.992C28.5126 142.992 28.8906 142.929 29.2546 142.803V143.958C28.8066 144.07 28.3516 144.126 27.8896 144.126C26.9656 144.126 26.2376 143.867 25.7056 143.349C25.1876 142.831 24.9286 142.054 24.9286 141.018V134.508H22.8496V133.479H24.9286V130.686L26.2096 130.203V133.479H29.3176V134.508H26.2096ZM32.8063 129.048V130.392C32.8063 130.924 32.7223 131.414 32.5543 131.862C32.3863 132.296 32.1063 132.716 31.7143 133.122L31.0423 132.597C31.5183 132.065 31.7843 131.491 31.8403 130.875H31.0213V129.048H32.8063ZM38.7578 144.147C37.0498 144.147 35.6988 143.678 34.7048 142.74L35.1668 141.753C35.7268 142.215 36.2868 142.544 36.8468 142.74C37.4208 142.936 38.0788 143.034 38.8208 143.034C39.6888 143.034 40.3468 142.887 40.7948 142.593C41.2568 142.285 41.4878 141.844 41.4878 141.27C41.4878 140.794 41.3338 140.423 41.0258 140.157C40.7318 139.877 40.2418 139.653 39.5558 139.485L37.7708 139.086C36.9308 138.89 36.2658 138.54 35.7758 138.036C35.2998 137.532 35.0618 136.944 35.0618 136.272C35.0618 135.348 35.4118 134.613 36.1118 134.067C36.8258 133.507 37.7708 133.227 38.9468 133.227C39.6888 133.227 40.3748 133.346 41.0048 133.584C41.6488 133.822 42.1808 134.165 42.6008 134.613L42.1178 135.6C41.1518 134.76 40.0948 134.34 38.9468 134.34C38.1348 134.34 37.5048 134.501 37.0568 134.823C36.6088 135.145 36.3848 135.593 36.3848 136.167C36.3848 136.643 36.5248 137.028 36.8048 137.322C37.0988 137.616 37.5468 137.833 38.1488 137.973L39.9548 138.414C41.8448 138.834 42.7898 139.765 42.7898 141.207C42.7898 142.089 42.4258 142.803 41.6978 143.349C40.9698 143.881 39.9898 144.147 38.7578 144.147ZM52.8493 134.508V140.766C52.8493 141.606 53.0103 142.187 53.3323 142.509C53.6543 142.831 54.1303 142.992 54.7603 142.992C55.1523 142.992 55.5303 142.929 55.8943 142.803V143.958C55.4463 144.07 54.9913 144.126 54.5293 144.126C53.6053 144.126 52.8773 143.867 52.3453 143.349C51.8273 142.831 51.5683 142.054 51.5683 141.018V134.508H49.4893V133.479H51.5683V130.686L52.8493 130.203V133.479H55.9573V134.508H52.8493ZM67.0645 133.479V144H65.7835V141.984C65.4755 142.684 65.0065 143.223 64.3765 143.601C63.7605 143.965 63.0185 144.147 62.1505 144.147C61.2125 144.147 60.3865 143.93 59.6725 143.496C58.9725 143.048 58.4265 142.418 58.0345 141.606C57.6565 140.78 57.4675 139.821 57.4675 138.729C57.4675 137.637 57.6635 136.678 58.0555 135.852C58.4475 135.012 58.9935 134.368 59.6935 133.92C60.4075 133.458 61.2265 133.227 62.1505 133.227C63.0045 133.227 63.7395 133.409 64.3555 133.773C64.9855 134.137 65.4615 134.669 65.7835 135.369V133.479H67.0645ZM62.3395 143.013C63.4315 143.013 64.2785 142.635 64.8805 141.879C65.4825 141.123 65.7835 140.059 65.7835 138.687C65.7835 137.301 65.4825 136.23 64.8805 135.474C64.2785 134.718 63.4245 134.34 62.3185 134.34C61.2125 134.34 60.3515 134.732 59.7355 135.516C59.1195 136.286 58.8115 137.357 58.8115 138.729C58.8115 140.087 59.1195 141.144 59.7355 141.9C60.3515 142.642 61.2195 143.013 62.3395 143.013ZM70.5467 144V128.544H71.8067V144H70.5467ZM84.124 144H82.381L76.585 138.876V144H75.325V128.544H76.585V138.372L81.877 133.479H83.536L78.034 138.54L84.124 144ZM100.062 133.479V144H98.7806V141.984C98.4726 142.684 98.0036 143.223 97.3736 143.601C96.7576 143.965 96.0156 144.147 95.1476 144.147C94.2096 144.147 93.3836 143.93 92.6696 143.496C91.9696 143.048 91.4236 142.418 91.0316 141.606C90.6536 140.78 90.4646 139.821 90.4646 138.729C90.4646 137.637 90.6606 136.678 91.0526 135.852C91.4446 135.012 91.9906 134.368 92.6906 133.92C93.4046 133.458 94.2236 133.227 95.1476 133.227C96.0016 133.227 96.7366 133.409 97.3526 133.773C97.9826 134.137 98.4586 134.669 98.7806 135.369V133.479H100.062ZM95.3366 143.013C96.4286 143.013 97.2756 142.635 97.8776 141.879C98.4796 141.123 98.7806 140.059 98.7806 138.687C98.7806 137.301 98.4796 136.23 97.8776 135.474C97.2756 134.718 96.4216 134.34 95.3156 134.34C94.2096 134.34 93.3486 134.732 92.7326 135.516C92.1166 136.286 91.8086 137.357 91.8086 138.729C91.8086 140.087 92.1166 141.144 92.7326 141.9C93.3486 142.642 94.2166 143.013 95.3366 143.013ZM108.458 133.227C109.382 133.227 110.201 133.451 110.915 133.899C111.629 134.347 112.175 134.977 112.553 135.789C112.945 136.601 113.141 137.553 113.141 138.645C113.141 139.737 112.945 140.703 112.553 141.543C112.161 142.369 111.608 143.013 110.894 143.475C110.194 143.923 109.382 144.147 108.458 144.147C107.59 144.147 106.841 143.958 106.211 143.58C105.595 143.202 105.133 142.656 104.825 141.942V144H103.544V128.544H104.804V135.453C105.112 134.725 105.581 134.172 106.211 133.794C106.841 133.416 107.59 133.227 108.458 133.227ZM108.311 143.013C109.403 143.013 110.257 142.628 110.873 141.858C111.489 141.088 111.797 140.017 111.797 138.645C111.797 137.287 111.489 136.23 110.873 135.474C110.257 134.718 109.396 134.34 108.29 134.34C107.184 134.34 106.33 134.718 105.728 135.474C105.126 136.23 104.825 137.301 104.825 138.687C104.825 140.073 105.126 141.144 105.728 141.9C106.33 142.642 107.191 143.013 108.311 143.013ZM120.13 144.147C119.164 144.147 118.31 143.923 117.568 143.475C116.84 143.027 116.273 142.39 115.867 141.564C115.475 140.738 115.279 139.779 115.279 138.687C115.279 137.595 115.475 136.636 115.867 135.81C116.273 134.984 116.84 134.347 117.568 133.899C118.31 133.451 119.164 133.227 120.13 133.227C121.082 133.227 121.922 133.451 122.65 133.899C123.378 134.347 123.938 134.984 124.33 135.81C124.736 136.636 124.939 137.595 124.939 138.687C124.939 139.779 124.736 140.738 124.33 141.564C123.938 142.39 123.378 143.027 122.65 143.475C121.922 143.923 121.082 144.147 120.13 144.147ZM120.109 143.013C121.229 143.013 122.09 142.642 122.692 141.9C123.308 141.144 123.616 140.073 123.616 138.687C123.616 137.315 123.308 136.251 122.692 135.495C122.076 134.725 121.222 134.34 120.13 134.34C119.024 134.34 118.163 134.725 117.547 135.495C116.931 136.251 116.623 137.315 116.623 138.687C116.623 140.087 116.924 141.158 117.526 141.9C118.128 142.642 118.989 143.013 120.109 143.013ZM136.206 133.479V144H134.967V142.089C134.631 142.761 134.155 143.272 133.539 143.622C132.923 143.972 132.216 144.147 131.418 144.147C130.186 144.147 129.255 143.804 128.625 143.118C127.995 142.432 127.68 141.417 127.68 140.073V133.479H128.94V139.989C128.94 141.025 129.15 141.788 129.57 142.278C129.99 142.768 130.641 143.013 131.523 143.013C132.559 143.013 133.385 142.691 134.001 142.047C134.617 141.389 134.925 140.521 134.925 139.443V133.479H136.206ZM141.484 134.508V140.766C141.484 141.606 141.645 142.187 141.967 142.509C142.289 142.831 142.765 142.992 143.395 142.992C143.787 142.992 144.165 142.929 144.529 142.803V143.958C144.081 144.07 143.626 144.126 143.164 144.126C142.24 144.126 141.512 143.867 140.98 143.349C140.462 142.831 140.203 142.054 140.203 141.018V134.508H138.124V133.479H140.203V130.686L141.484 130.203V133.479H144.592V134.508H141.484ZM161.052 133.479L156.096 145.092C155.606 146.24 154.99 147.08 154.248 147.612C153.52 148.158 152.603 148.543 151.497 148.767L151.245 147.759C152.253 147.521 153.009 147.213 153.513 146.835C154.031 146.457 154.465 145.862 154.815 145.05L155.256 144.021L150.762 133.479H152.127L155.928 142.719L159.75 133.479H161.052ZM167.236 144.147C166.27 144.147 165.416 143.923 164.674 143.475C163.946 143.027 163.379 142.39 162.973 141.564C162.581 140.738 162.385 139.779 162.385 138.687C162.385 137.595 162.581 136.636 162.973 135.81C163.379 134.984 163.946 134.347 164.674 133.899C165.416 133.451 166.27 133.227 167.236 133.227C168.188 133.227 169.028 133.451 169.756 133.899C170.484 134.347 171.044 134.984 171.436 135.81C171.842 136.636 172.045 137.595 172.045 138.687C172.045 139.779 171.842 140.738 171.436 141.564C171.044 142.39 170.484 143.027 169.756 143.475C169.028 143.923 168.188 144.147 167.236 144.147ZM167.215 143.013C168.335 143.013 169.196 142.642 169.798 141.9C170.414 141.144 170.722 140.073 170.722 138.687C170.722 137.315 170.414 136.251 169.798 135.495C169.182 134.725 168.328 134.34 167.236 134.34C166.13 134.34 165.269 134.725 164.653 135.495C164.037 136.251 163.729 137.315 163.729 138.687C163.729 140.087 164.03 141.158 164.632 141.9C165.234 142.642 166.095 143.013 167.215 143.013ZM183.312 133.479V144H182.073V142.089C181.737 142.761 181.261 143.272 180.645 143.622C180.029 143.972 179.322 144.147 178.524 144.147C177.292 144.147 176.361 143.804 175.731 143.118C175.101 142.432 174.786 141.417 174.786 140.073V133.479H176.046V139.989C176.046 141.025 176.256 141.788 176.676 142.278C177.096 142.768 177.747 143.013 178.629 143.013C179.665 143.013 180.491 142.691 181.107 142.047C181.723 141.389 182.031 140.521 182.031 139.443V133.479H183.312ZM191.342 133.227C191.692 133.227 192 133.255 192.266 133.311L192.203 134.466C191.937 134.41 191.615 134.382 191.236 134.382C190.173 134.382 189.375 134.725 188.843 135.411C188.325 136.083 188.066 136.888 188.066 137.826V144H186.806V136.398C186.806 135.306 186.75 134.333 186.638 133.479H187.856L188.024 135.432C188.29 134.718 188.717 134.172 189.305 133.794C189.907 133.416 190.586 133.227 191.342 133.227ZM204.393 133.227C205.317 133.227 206.129 133.458 206.829 133.92C207.543 134.368 208.096 135.012 208.488 135.852C208.88 136.678 209.076 137.637 209.076 138.729C209.076 139.821 208.88 140.773 208.488 141.585C208.11 142.397 207.564 143.027 206.85 143.475C206.136 143.923 205.317 144.147 204.393 144.147C203.511 144.147 202.755 143.958 202.125 143.58C201.509 143.188 201.047 142.628 200.739 141.9V148.536H199.479V136.398C199.479 135.306 199.423 134.333 199.311 133.479H200.529L200.697 135.537C201.005 134.795 201.474 134.228 202.104 133.836C202.748 133.43 203.511 133.227 204.393 133.227ZM204.225 143.013C205.331 143.013 206.192 142.642 206.808 141.9C207.424 141.144 207.732 140.087 207.732 138.729C207.732 137.357 207.424 136.286 206.808 135.516C206.192 134.732 205.338 134.34 204.246 134.34C203.126 134.34 202.265 134.718 201.663 135.474C201.061 136.23 200.76 137.301 200.76 138.687C200.76 140.059 201.061 141.123 201.663 141.879C202.265 142.635 203.119 143.013 204.225 143.013ZM216.423 133.227C216.773 133.227 217.081 133.255 217.347 133.311L217.284 134.466C217.018 134.41 216.696 134.382 216.318 134.382C215.254 134.382 214.456 134.725 213.924 135.411C213.406 136.083 213.147 136.888 213.147 137.826V144H211.887V136.398C211.887 135.306 211.831 134.333 211.719 133.479H212.937L213.105 135.432C213.371 134.718 213.798 134.172 214.386 133.794C214.988 133.416 215.667 133.227 216.423 133.227ZM223.182 144.147C222.216 144.147 221.362 143.923 220.62 143.475C219.892 143.027 219.325 142.39 218.919 141.564C218.527 140.738 218.331 139.779 218.331 138.687C218.331 137.595 218.527 136.636 218.919 135.81C219.325 134.984 219.892 134.347 220.62 133.899C221.362 133.451 222.216 133.227 223.182 133.227C224.134 133.227 224.974 133.451 225.702 133.899C226.43 134.347 226.99 134.984 227.382 135.81C227.788 136.636 227.991 137.595 227.991 138.687C227.991 139.779 227.788 140.738 227.382 141.564C226.99 142.39 226.43 143.027 225.702 143.475C224.974 143.923 224.134 144.147 223.182 144.147ZM223.161 143.013C224.281 143.013 225.142 142.642 225.744 141.9C226.36 141.144 226.668 140.073 226.668 138.687C226.668 137.315 226.36 136.251 225.744 135.495C225.128 134.725 224.274 134.34 223.182 134.34C222.076 134.34 221.215 134.725 220.599 135.495C219.983 136.251 219.675 137.315 219.675 138.687C219.675 140.087 219.976 141.158 220.578 141.9C221.18 142.642 222.041 143.013 223.161 143.013ZM227.96 147.276C228.338 147.388 228.681 147.444 228.989 147.444C229.563 147.444 230.004 147.283 230.312 146.961C230.634 146.639 230.795 146.065 230.795 145.239V133.479H232.055V145.47C232.055 146.52 231.803 147.304 231.299 147.822C230.795 148.34 230.102 148.599 229.22 148.599C228.828 148.599 228.408 148.543 227.96 148.431V147.276ZM230.606 129.132H232.307V130.77H230.606V129.132ZM236.245 138.582V138.645C236.245 140.059 236.567 141.144 237.211 141.9C237.869 142.642 238.821 143.013 240.067 143.013C241.327 143.013 242.482 142.579 243.532 141.711L244.036 142.719C243.574 143.153 242.986 143.503 242.272 143.769C241.558 144.021 240.823 144.147 240.067 144.147C238.471 144.147 237.211 143.664 236.287 142.698C235.363 141.732 234.901 140.402 234.901 138.708C234.901 137.63 235.104 136.678 235.51 135.852C235.93 135.012 236.511 134.368 237.253 133.92C237.995 133.458 238.849 133.227 239.815 133.227C241.201 133.227 242.279 133.675 243.049 134.571C243.833 135.467 244.225 136.713 244.225 138.309V138.582H236.245ZM239.815 134.277C238.849 134.277 238.065 134.571 237.463 135.159C236.861 135.733 236.483 136.545 236.329 137.595H243.007C242.923 136.517 242.608 135.698 242.062 135.138C241.516 134.564 240.767 134.277 239.815 134.277ZM251.238 144.147C250.244 144.147 249.376 143.923 248.634 143.475C247.892 143.027 247.318 142.397 246.912 141.585C246.506 140.759 246.303 139.807 246.303 138.729C246.303 137.637 246.506 136.678 246.912 135.852C247.318 135.012 247.899 134.368 248.655 133.92C249.411 133.458 250.286 133.227 251.28 133.227C251.994 133.227 252.673 133.353 253.317 133.605C253.975 133.843 254.514 134.179 254.934 134.613L254.43 135.621C253.884 135.173 253.359 134.851 252.855 134.655C252.365 134.445 251.854 134.34 251.322 134.34C250.188 134.34 249.292 134.732 248.634 135.516C247.976 136.286 247.647 137.357 247.647 138.729C247.647 140.073 247.969 141.123 248.613 141.879C249.271 142.635 250.174 143.013 251.322 143.013C251.854 143.013 252.365 142.915 252.855 142.719C253.359 142.509 253.884 142.187 254.43 141.753L254.934 142.74C254.486 143.174 253.926 143.517 253.254 143.769C252.596 144.021 251.924 144.147 251.238 144.147ZM259.055 134.508V140.766C259.055 141.606 259.216 142.187 259.538 142.509C259.86 142.831 260.336 142.992 260.966 142.992C261.358 142.992 261.736 142.929 262.1 142.803V143.958C261.652 144.07 261.197 144.126 260.735 144.126C259.811 144.126 259.083 143.867 258.551 143.349C258.033 142.831 257.774 142.054 257.774 141.018V134.508H255.695V133.479H257.774V130.686L259.055 130.203V133.479H262.163V134.508H259.055ZM268.669 147.822C269.397 146.114 269.915 144.497 270.223 142.971C270.545 141.431 270.706 139.912 270.706 138.414C270.706 136.902 270.545 135.39 270.223 133.878C269.915 132.366 269.39 130.756 268.648 129.048H269.782C270.552 130.602 271.119 132.149 271.483 133.689C271.847 135.229 272.029 136.804 272.029 138.414C272.029 140.052 271.847 141.641 271.483 143.181C271.119 144.721 270.545 146.268 269.761 147.822H268.669Z" fill="#7D7987"/>
</svg>
